<svg id="Layer_1" data-name="Layer 1" xmlns="http://www.w3.org/2000/svg" viewBox="0 0 661.9 442"><g id="Layer_2" data-name="Layer 2"><g id="Layer_1-2" data-name="Layer 1-2"><path d="M437.07,279H354.35l-10,46.66h10V600.39h48.73V507.07h34a40.1,40.1,0,0,0,40.21-40v-148A40.09,40.09,0,0,0,437.2,279ZM428.3,460.41H403.94V325.66H428.3Z" transform="translate(-169.05 -279)"/><polygon points="351.24 46.66 361.35 46.66 361.35 321.51 472.33 321.51 472.33 274.73 410.2 274.73 410.2 184.09 453.94 184.09 453.94 137.43 410.2 137.43 410.2 46.66 472.33 46.66 472.33 0 361.35 0 351.24 46.66"/><polygon points="625.6 149.49 661.9 0 610.25 0 587.71 101.24 563.22 0 524.97 0 514.85 46.66 524.97 46.66 524.97 46.66 549.94 149.49 549.94 171.9 513.64 321.51 565.17 321.51 587.71 220.27 612.2 321.51 661.9 321.51 625.6 171.9 625.6 149.49"/><path d="M275.16,279H207.79L183.42,507.07h-4.5v1.09l-9.87,45.57h9.87L174,600.39h43.74l4.14-46.66h39.23l4.14,46.66h43.62ZM225.82,507.07l15.6-181.41,15.71,181.41Z" transform="translate(-169.05 -279)"/><polygon points="119.03 397.53 119.03 407.89 7.19 407.89 5 397.53 119.03 397.53"/><polygon points="547.87 397.53 547.87 407.89 659.71 407.89 661.9 397.53 547.87 397.53"/><polygon points="209.43 442 236.11 442 236.11 431.64 219.78 431.64 219.78 407.89 231.97 407.89 231.97 397.53 219.78 397.53 219.78 371.95 236.11 371.95 236.11 361.59 209.43 361.59 209.43 442"/><polygon points="171.66 371.95 171.66 361.59 161.3 361.59 161.3 442 187.98 442 187.98 431.64 171.66 431.64 171.66 371.95"/><path d="M452.06,640.59H436.34a7.06,7.06,0,0,0-6.82,6.95v66.64a7,7,0,0,0,6.82,6.82h15.72a6.94,6.94,0,0,0,6.82-6.82V676.53H445.36l-2.19,10.36h5.36v24.36h-8.65V651.56h8.65v10.35l10.35-2.31V648.15a6.94,6.94,0,0,0-6.31-7.53Z" transform="translate(-169.05 -279)"/><polygon points="314.2 442 340.88 442 340.88 431.64 324.56 431.64 324.56 407.89 336.62 407.89 336.62 397.53 324.56 397.53 324.56 371.95 340.88 371.95 340.88 361.59 314.2 361.59 314.2 442"/><polygon points="387.66 407.89 374.51 361.59 365.25 361.59 365.25 442 375.48 442 375.48 397.53 389.25 442 398.02 442 398.02 361.59 387.66 361.59 387.66 407.89"/><path d="M614,640.59H591.43V721H614a6.94,6.94,0,0,0,6.82-6.82V647.54A6.94,6.94,0,0,0,614,640.59Zm-3.41,70h-8.77V651h8.77Z" transform="translate(-169.05 -279)"/><path d="M667.7,676.53H655.52V651h8.77V661.3L674.64,659h0V646.81a6.82,6.82,0,0,0-6.82-6.83H652.1a6.71,6.71,0,0,0-6.94,6.45,4.17,4.17,0,0,0,0,.5v32.53a7,7,0,0,0,6.94,6.82h12.19v24.36h-8.77V699.8L645.16,702v12.19A7.06,7.06,0,0,0,652.1,721h15.6a6.93,6.93,0,0,0,6.94-6.82v-30.7A7.06,7.06,0,0,0,667.7,676.53Z" transform="translate(-169.05 -279)"/><path d="M689.14,641.93H686.7v-1.34h6.22v1.34h-2.44v9h-1.34Z" transform="translate(-169.05 -279)"/><path d="M699.13,651v-5.61l-1.1,3.41h-1.09l-1-3.41V651H694.5V640.59h1.34l1.59,5.24,1.7-5.24h1.34V651Z" transform="translate(-169.05 -279)"/></g></g></svg>