<?xml version="1.0" encoding="UTF-8"?>
<svg version="1.1" xmlns="http://www.w3.org/2000/svg" width="2000" height="410">
<path d="M0 0 C47.88258579 -0.11453064 95.76515705 -0.20259217 143.6478529 -0.25532665 C149.30527455 -0.26157992 154.96269594 -0.26805156 160.62011719 -0.2746582 C162.30950031 -0.27662553 162.30950031 -0.27662553 164.03301239 -0.2786326 C182.25138345 -0.30036866 200.46967534 -0.33978027 218.68799949 -0.38576398 C237.39203706 -0.4325787 256.09603327 -0.460306 274.80012703 -0.47044247 C286.33465331 -0.47729122 297.8689558 -0.49889532 309.40341318 -0.53958233 C317.32101981 -0.56608262 325.23851132 -0.57398453 333.15615904 -0.56750689 C337.71919496 -0.56431532 342.28184074 -0.56908779 346.84480667 -0.59602737 C351.03273975 -0.62057059 355.22002475 -0.62145304 359.40798926 -0.60449447 C360.91298779 -0.60240225 362.41802875 -0.60856562 363.92294526 -0.62441591 C384.36594007 -0.82698782 401.66692305 6.54482368 416.50585938 20.51464844 C429.22004807 33.15404779 437.34336882 51.33515243 437.41015625 69.26757812 C437.39275391 70.83668945 437.39275391 70.83668945 437.375 72.4375 C437.38660156 73.47970703 437.39820313 74.52191406 437.41015625 75.59570312 C437.40628906 76.63533203 437.40242188 77.67496094 437.3984375 78.74609375 C437.39505371 79.66060303 437.39166992 80.5751123 437.38818359 81.51733398 C436.32105963 91.09124806 433.10699285 99.80615517 429.2734375 108.578125 C428.81311127 109.6516774 428.35278503 110.7252298 427.87850952 111.83131409 C426.38567294 115.30786398 424.88043059 118.77888758 423.375 122.25 C422.33273851 124.6710721 421.29140641 127.0925445 420.25097656 129.5144043 C418.15957629 134.38081489 416.06413958 139.24545581 413.96582031 144.10888672 C410.20495401 152.83500962 406.50063068 161.58476157 402.7991333 170.33618164 C400.77930641 175.10367345 398.74531554 179.86513409 396.71194458 184.62686157 C395.25051024 188.05246442 393.7956095 191.48041005 392.36132812 194.91748047 C382.36012022 218.87260297 382.36012022 218.87260297 374 228 C373.41863281 228.66386719 372.83726562 229.32773438 372.23828125 230.01171875 C360.0080226 243.15425776 342.35556649 250.80472776 324.62930608 252.2806505 C321.17701033 252.38947712 317.73586235 252.41276622 314.28189087 252.39872742 C312.97544282 252.40537424 311.66899478 252.41202107 310.3229574 252.41886932 C306.74023098 252.43670745 303.15771377 252.43636091 299.57495356 252.43273985 C295.69510285 252.43211123 291.81531951 252.44878035 287.9355011 252.46325684 C281.22788607 252.48595993 274.52032268 252.49791356 267.81267166 252.50238609 C258.11477058 252.50886829 248.41696252 252.53184187 238.71909909 252.55872939 C222.98169116 252.6019188 207.24428718 252.63193026 191.50683594 252.65356445 C176.22719388 252.67459772 160.94758398 252.70189325 145.66796875 252.73754883 C144.72476928 252.73974765 143.78156981 252.74194648 142.80978854 252.74421193 C138.07762659 252.75528217 133.34546494 252.76647487 128.61330342 252.77772844 C89.40889699 252.87080236 50.20447375 252.94245175 11 253 C10.64448563 253.84776505 10.28897125 254.69553009 9.92268372 255.56898499 C1.61512248 275.37932332 -6.69243876 295.18966166 -15 315 C-14.03186136 315.00089563 -14.03186136 315.00089563 -13.04416436 315.00180936 C25.22668786 315.03771951 63.49745917 315.09438337 101.76823835 315.17792095 C106.36559283 315.18793816 110.96294766 315.19778233 115.56030273 315.20751953 C116.93315271 315.21043159 116.93315271 315.21043159 118.33373704 315.21340248 C133.14434758 315.24440598 147.95494263 315.26139853 162.7655795 315.27319422 C177.96773357 315.28561433 193.16980649 315.31313515 208.37190932 315.35461307 C217.74904613 315.37972385 227.1260483 315.39311905 236.50321921 315.39142957 C242.93741316 315.39139977 249.37147018 315.40606548 255.80561075 315.43216428 C259.51532226 315.44678185 263.22475299 315.45503775 266.9344883 315.44580269 C270.96402231 315.43594165 274.99281815 315.45708701 279.02229309 315.48101807 C280.7660129 315.46937744 280.7660129 315.46937744 282.54495937 315.45750165 C294.01677959 315.57783905 302.4957518 318.56495166 310.76953125 326.5625 C317.86745697 334.31925245 321.35572467 341.55715801 321.375 352.1875 C321.39949219 352.87908203 321.42398437 353.57066406 321.44921875 354.28320312 C321.5426533 371.30386449 305.45912416 399.40958013 301 410 C144.25 410 -12.5 410 -174 410 C-170.62548695 399.87646085 -170.62548695 399.87646085 -169.12158203 396.43115234 C-168.61345474 395.25894135 -168.61345474 395.25894135 -168.09506226 394.06304932 C-167.55687363 392.83687897 -167.55687363 392.83687897 -167.0078125 391.5859375 C-166.62605865 390.70726013 -166.24430481 389.82858276 -165.85098267 388.92327881 C-165.03547844 387.04682554 -164.21837049 385.17106855 -163.39978027 383.29595947 C-161.22397897 378.31045134 -159.06148477 373.3191769 -156.8984375 368.328125 C-156.46897827 367.33777252 -156.03951904 366.34742004 -155.5970459 365.32705688 C-152.25721112 357.61646975 -148.98041151 349.88215166 -145.75 342.125 C-137.33913682 321.95059469 -128.74020694 301.85593643 -120.1557312 281.75494385 C-117.6045559 275.77682716 -115.06534132 269.79402296 -112.54873657 263.80126953 C-111.21507938 260.6264164 -109.87488394 257.45434618 -108.53387451 254.28259277 C-107.94391872 252.88208662 -107.35717761 251.48022033 -106.77423096 250.07678223 C-103.68773935 242.6483082 -100.31893967 235.49685537 -96.390625 228.4765625 C-96.02788483 227.82817413 -95.66514465 227.17978577 -95.29141235 226.51174927 C-77.19636619 194.92611544 -45.03808758 170.73126332 -10.12890625 160.87890625 C-6.10686198 159.80623318 -2.08598696 158.79903356 2 158 C2.84143869 157.82943148 3.68287739 157.65886295 4.54981422 157.48312569 C17.22667221 155.30078439 30.01340802 155.73547519 42.83349609 155.77294922 C45.5448874 155.77463194 48.25627528 155.7732832 50.96766663 155.77206421 C56.78149649 155.77102097 62.59528109 155.77723844 68.40909958 155.78853989 C76.81465783 155.80486867 85.22019444 155.8100104 93.62576683 155.81251587 C107.26679963 155.81688146 120.90780837 155.83015957 134.54882812 155.84912109 C147.79133993 155.86750941 161.03384517 155.88165143 174.27636719 155.89013672 C175.09411284 155.89066217 175.9118585 155.89118761 176.75438432 155.89172898 C180.857215 155.89433926 184.96004571 155.89686663 189.06287646 155.89935279 C223.04193509 155.92004988 257.02096458 155.95524427 291 156 C291.1483366 155.220971 291.2966732 154.44194201 291.44950485 153.63930607 C291.98609233 151.06667926 292.75082572 148.90520495 293.77832031 146.49194336 C294.14250061 145.63011948 294.50668091 144.76829559 294.88189697 143.88035583 C295.27665222 142.95948685 295.67140747 142.03861786 296.078125 141.08984375 C296.48657654 140.12655655 296.89502808 139.16326935 297.31585693 138.17079163 C298.62280818 135.09112323 299.93623719 132.01426795 301.25 128.9375 C302.11893211 126.89406833 302.98742628 124.85045037 303.85546875 122.80664062 C305.08949069 119.90116535 306.32405754 116.99594196 307.56231689 114.0922699 C310.41125565 107.40909696 313.20546291 100.70688902 316 94 C198.85 93.67 81.7 93.34 -39 93 C-37.03458358 87.10375073 -35.03379623 81.45594725 -32.5859375 75.77734375 C-32.09500862 74.62628899 -32.09500862 74.62628899 -31.59416199 73.45198059 C-30.52439665 70.94573369 -29.44973635 68.44161873 -28.375 65.9375 C-27.62456124 64.18211889 -26.87448591 62.42658236 -26.12475586 60.67089844 C-24.95535721 57.93285087 -23.78559065 55.19496468 -22.61442566 52.45767212 C-19.78660576 45.84807939 -16.97331137 39.23244287 -14.16796875 32.61328125 C-13.58471832 31.23770302 -13.58471832 31.23770302 -12.98968506 29.83433533 C-11.474789 26.26145261 -9.95992379 22.68855798 -8.44671631 19.11495972 C-7.40447234 16.65425697 -6.36061999 14.19424238 -5.31640625 11.734375 C-5.00881882 11.00700638 -4.70123138 10.27963776 -4.38432312 9.53022766 C-3.01212822 6.30123101 -1.58874044 3.12750382 0 0 Z M13 19 C12.63401199 19.87460373 12.26802399 20.74920746 11.89094543 21.65031433 C10.50718421 24.9565884 9.12252673 28.26248654 7.73762512 31.56828308 C7.14317014 32.98759707 6.54894467 34.40700721 5.95497131 35.82652283 C1.88521467 45.55212165 -2.2211896 55.25992117 -6.45373535 64.9161377 C-8.31415434 68.81327207 -8.31415434 68.81327207 -9 73 C108.15 73 225.3 73 346 73 C339.12072057 91.34474514 339.12072057 91.34474514 336.109375 98.23828125 C335.5954847 99.42910309 335.5954847 99.42910309 335.07121277 100.64398193 C334.34255335 102.33201958 333.61232672 104.01938153 332.88058472 105.70608521 C330.90803457 110.25354088 328.94769384 114.8062461 326.98828125 119.359375 C326.582715 120.30148331 326.17714874 121.24359161 325.7592926 122.21424866 C320.25956252 135.01625728 314.91680393 147.88456236 309.57519531 160.75317383 C308.85091481 162.4930027 308.12663113 164.23283024 307.40234375 165.97265625 C306.90519112 167.17580475 306.90519112 167.17580475 306.397995 168.40325928 C304.11282925 173.88717075 304.11282925 173.88717075 303 175 C301.48092051 175.0982704 299.9572702 175.12662873 298.43501568 175.12749195 C297.44214068 175.1304996 296.44926568 175.13350725 295.42630357 175.13660604 C294.32226569 175.13485567 293.21822782 175.13310529 292.08073425 175.13130188 C290.91792806 175.13341759 289.75512188 175.13553331 288.55707914 175.13771313 C285.31428736 175.14269055 282.07152855 175.14320684 278.82873428 175.14197242 C275.3361713 175.14175783 271.84361761 175.14732848 268.35105896 175.15237427 C262.29042251 175.1605024 256.22979029 175.16543667 250.1691494 175.16866493 C240.57354843 175.17416085 230.97798305 175.19106127 221.38240051 175.21000671 C218.09832674 175.21636456 214.81425288 175.22267298 211.53017902 175.22898388 C210.70923305 175.23056764 209.88828708 175.2321514 209.04246395 175.23378316 C199.68708466 175.25173698 190.33170282 175.26795092 180.97631836 175.28295898 C180.12083302 175.28433486 179.26534767 175.28571073 178.38393853 175.28712829 C164.56561502 175.30898955 150.74730064 175.31979668 136.92896291 175.32732973 C122.72679802 175.33542841 108.52471103 175.358814 94.32259065 175.3952834 C85.57417852 175.41720816 76.82592705 175.42700393 68.07748888 175.42078307 C62.0628047 175.41758464 56.04825655 175.42909398 50.03361448 175.45167748 C46.57390215 175.46422535 43.11449317 175.47066377 39.6547699 175.45926094 C6.27449289 175.37972144 -23.85514643 182.1005895 -50 204 C-50.772229 204.63881104 -50.772229 204.63881104 -51.56005859 205.29052734 C-58.32374094 210.95328842 -64.23816882 217.12477305 -69.6875 224.0625 C-70.173396 224.66707031 -70.65929199 225.27164063 -71.15991211 225.89453125 C-81.952608 240.16822395 -88.59874248 257.53023886 -95.375 273.9375 C-96.21109359 275.94271168 -97.04818325 277.94750832 -97.88623047 279.9519043 C-99.52809181 283.87976939 -101.16667705 287.80897199 -102.80273438 291.73925781 C-105.53104842 298.28352855 -108.31844506 304.8013917 -111.125 311.3125 C-118.80803503 329.1836108 -126.41616779 347.08659094 -134 365 C-134.29380554 365.69371704 -134.58761108 366.38743408 -134.89031982 367.10217285 C-136.62107601 371.19031889 -138.34445007 375.28149282 -140.0625 379.375 C-140.67955811 380.83534668 -140.67955811 380.83534668 -141.30908203 382.32519531 C-141.67243652 383.19499023 -142.03579102 384.06478516 -142.41015625 384.9609375 C-142.87627319 386.07154541 -142.87627319 386.07154541 -143.35180664 387.20458984 C-144.11319177 388.99538707 -144.11319177 388.99538707 -144 391 C-1.77 391 140.46 391 287 391 C298.34390121 370.5601212 298.34390121 370.5601212 301 347 C298.00900533 341.44529562 294.71689579 337.89072187 288.66329765 335.90607738 C282.71746658 334.51351077 276.71135817 334.72772113 270.63723755 334.75276184 C269.28294751 334.75117187 267.92865827 334.7487064 266.57437122 334.74544543 C262.8679536 334.73905425 259.16164584 334.74508265 255.45523548 334.75320971 C251.45257032 334.75980398 247.4499171 334.75483458 243.44725037 334.75132751 C235.61366426 334.74629267 227.78012045 334.75191753 219.9465396 334.76117782 C210.82753857 334.7715699 201.70854666 334.77149144 192.58954082 334.77100524 C176.32530995 334.77050492 160.06109877 334.77965955 143.796875 334.79418945 C128.00487917 334.80829022 112.21290065 334.81535961 96.42089844 334.81469727 C95.44738348 334.81465731 94.47386852 334.81461735 93.47085311 334.81457619 C92.49903904 334.81453583 91.52722497 334.81449548 90.525962 334.8144539 C72.55423293 334.81376478 54.58251124 334.81964814 36.61078457 334.82860712 C30.24919107 334.83162737 23.88759893 334.83268712 17.52600479 334.83313942 C9.78178911 334.83382027 2.03758585 334.83826721 -5.70662455 334.84747223 C-9.6602525 334.85210067 -13.6138645 334.85513186 -17.56749535 334.85387802 C-21.18178775 334.85278733 -24.79604481 334.85627457 -28.41032983 334.86352655 C-30.34706 334.86621494 -32.28379505 334.86397284 -34.22052562 334.8615945 C-35.35864448 334.86481894 -36.49676334 334.86804339 -37.66937065 334.87136555 C-38.65762301 334.87206997 -39.64587538 334.8727744 -40.66407478 334.87350017 C-43.02340332 334.8457878 -43.02340332 334.8457878 -45 336 C-41.82955709 326.78843793 -38.32166283 317.84887166 -34.375 308.9375 C-33.2318992 306.33367688 -32.09384643 303.72766657 -30.95703125 301.12109375 C-30.65161911 300.42128387 -30.34620697 299.721474 -30.03153992 299.00045776 C-24.78700444 286.95060322 -19.72471764 274.82210271 -14.62451172 262.71069336 C-14.03401787 261.30883034 -14.03401787 261.30883034 -13.43159485 259.87864685 C-12.70205931 258.1462512 -11.97299299 256.41365782 -11.24455261 254.68080139 C-9.13552183 249.66988031 -7.00453339 244.66862697 -4.86131287 239.67224121 C-4.58515247 239.02816692 -4.30899207 238.38409264 -4.02446318 237.72050095 C-3.34975282 236.14695316 -2.67489192 234.57346992 -2 233 C-1.30666638 232.99940291 -0.61333275 232.99880582 0.10101098 232.99819064 C41.2194879 232.96227459 82.3378908 232.90560167 123.45629991 232.82207905 C128.39656618 232.81206193 133.33683278 232.80221774 138.27709961 232.79248047 C139.26059245 232.7905391 140.24408529 232.78859772 141.25738094 232.78659752 C157.16918336 232.75560041 173.08097137 232.73860326 188.99279829 232.72680578 C205.32723136 232.71438236 221.66158895 232.68685406 237.99597436 232.64538693 C248.07020788 232.62028565 258.14431618 232.60688026 268.21858142 232.60857043 C275.13261765 232.60860025 282.04652659 232.5939205 288.9605132 232.56783572 C292.94590274 232.55322915 296.93103124 232.54495281 300.91644287 232.55419731 C304.57314193 232.56253538 308.22931844 232.55219107 311.88594035 232.52766338 C313.81888712 232.51936705 315.75188801 232.53046098 317.68481511 232.54249835 C333.25656988 232.39084068 346.42530335 227.00733558 357.77197266 216.35571289 C364.22895063 209.52869334 368.24853095 200.87991473 371.875 192.3125 C372.55864624 190.72912842 372.55864624 190.72912842 373.25610352 189.11376953 C374.55937139 186.08612215 375.85291086 183.05468019 377.14129639 180.02069092 C378.03760541 177.91150742 378.9366907 175.80352495 379.83642578 173.69580078 C382.591495 167.24015659 385.34376472 160.78339066 388.07617188 154.31811523 C391.69839054 145.74983134 395.34104851 137.19183185 399.04792786 128.65975952 C400.88336585 124.43298295 402.70927628 120.2021183 404.53469849 115.9710083 C405.41774364 113.93123209 406.30523248 111.893373 407.19747925 109.85760498 C415.95322216 89.87068435 421.21918536 73.35743876 414 52 C408.27829649 38.51194965 398.17784868 28.65419211 384.890625 22.578125 C378.48055955 20.18734383 372.63904865 18.8745591 365.77812481 18.87695217 C363.88738343 18.8739656 363.88738343 18.8739656 361.95844525 18.87091869 C360.56219635 18.87377156 359.16594763 18.87671715 357.7696991 18.87974548 C356.2845803 18.87930941 354.79946158 18.87843383 353.31434327 18.87715632 C349.2324652 18.87491847 345.15061332 18.87892297 341.06873858 18.88393438 C336.66728569 18.88824885 332.2658343 18.88679174 327.86437988 18.8860321 C320.23825416 18.8855075 312.61213699 18.88864766 304.98601341 18.89426994 C293.95988965 18.90239356 282.93377002 18.90500105 271.90764359 18.90625793 C254.01891174 18.90844709 236.13018445 18.91510351 218.24145508 18.92456055 C200.8632001 18.93373817 183.48494636 18.94081729 166.10668945 18.94506836 C164.50016276 18.94546244 164.50016276 18.94546244 162.86118098 18.94586449 C157.48825258 18.94716952 152.11532417 18.94843323 146.74239576 18.94967639 C102.16159402 18.96004478 57.58079724 18.97765941 13 19 Z " fill="#000000" transform="translate(1563,0)"/>
<path d="M0 0 C1.23516861 -0.00335861 2.47033722 -0.00671722 3.74293518 -0.01017761 C7.11074586 -0.01801757 10.47849487 -0.02135323 13.84631038 -0.0219934 C15.95503865 -0.02270696 18.06376057 -0.02484702 20.17248726 -0.02749062 C27.54207898 -0.03672365 34.91165269 -0.0408279 42.28125 -0.04003906 C49.13066368 -0.03943822 55.97999862 -0.04999666 62.82939237 -0.06578273 C68.72858769 -0.07889023 74.62775736 -0.08422164 80.52696711 -0.08358365 C84.04217052 -0.08332969 87.55730381 -0.08612461 91.0724926 -0.0967617 C94.99497387 -0.10830913 98.91734829 -0.10367624 102.83984375 -0.09765625 C103.99181244 -0.10327576 105.14378113 -0.10889526 106.33065796 -0.11468506 C116.92534039 -0.07345445 125.24292001 1.11193396 133.48461914 8.14526367 C139.9328652 15.06197205 142.16933018 21.97746005 141.88378906 31.41552734 C141.48030433 35.18558013 140.65227837 37.87155636 139.19165039 41.35620117 C138.80472771 42.28895622 138.80472771 42.28895622 138.4099884 43.24055481 C137.44722107 45.54750598 136.46618949 47.84625006 135.48461914 50.14526367 C134.61844866 52.19119172 133.7524103 54.2371757 132.88647461 56.28320312 C130.09872145 62.85249044 127.28722091 69.41149755 124.47174072 75.96893311 C123.41259648 78.43768264 122.35614328 80.90757983 121.29959774 83.37744236 C116.41553551 94.79175995 111.51080876 106.19624027 106.43774414 117.52807617 C106.08419357 118.32126755 105.73064301 119.11445892 105.36637878 119.9316864 C99.08413202 133.85861212 91.20144333 143.5510983 77.48461914 150.58276367 C76.84468018 150.91300537 76.20474121 151.24324707 75.54541016 151.58349609 C66.14308701 156.11449329 56.50644701 156.44355962 46.22314453 156.43579102 C44.93237503 156.44250824 43.64160553 156.44922546 42.3117218 156.45614624 C38.79927135 156.47367625 35.28691858 156.47849593 31.77442861 156.47977781 C29.57353614 156.48120685 27.37266794 156.48549045 25.17178154 156.49077225 C17.47567056 156.50922615 9.77962847 156.51744829 2.08349609 156.51586914 C-5.06252815 156.51466747 -12.20825052 156.53578668 -19.3541984 156.56735647 C-25.5150448 156.59359336 -31.675793 156.60423342 -37.83669478 156.60295832 C-41.50515467 156.60245107 -45.17334554 156.60800264 -48.84174919 156.62931442 C-52.93621036 156.65245703 -57.03000269 156.64313085 -61.12451172 156.63110352 C-62.3222522 156.64234253 -63.51999268 156.65358154 -64.75402832 156.66516113 C-74.33127734 156.59394529 -82.68903477 155.04377598 -89.95288086 148.45776367 C-96.30665841 141.33422662 -98.51224531 134.31865834 -98.15844727 124.75488281 C-97.20762936 114.95431992 -91.97368897 105.7350035 -87.95288086 96.89526367 C-86.98920667 94.72386874 -86.02829418 92.55124617 -85.07006836 90.37744141 C-83.14696792 86.02165595 -81.21106883 81.67193715 -79.26489258 77.32641602 C-76.77177366 71.74417859 -74.34472641 66.13648392 -71.95678711 60.50854492 C-71.61481796 59.7029715 -71.27284882 58.89739807 -70.92051697 58.06741333 C-69.95120072 55.78125921 -68.98315536 53.49457079 -68.01538086 51.20776367 C-58.70301235 29.21596611 -50.34308785 13.12039614 -27.51538086 3.14526367 C-18.50086913 -0.00981543 -9.44094649 -0.00370757 0 0 Z M-30.51538086 37.14526367 C-25.05655276 41.45986074 -25.05655276 41.45986074 -18.51538086 43.14526367 C-22.84563864 54.92688515 -27.88101473 66.39112863 -32.89038086 77.89526367 C-39.84145667 93.86557588 -39.84145667 93.86557588 -46.61694336 109.91088867 C-46.91378021 110.61928894 -47.21061707 111.32768921 -47.51644897 112.05755615 C-49.01272149 115.48703753 -49.01272149 115.48703753 -49.51538086 119.14526367 C-36.05914844 119.23794715 -22.60299197 119.3090206 -9.14650536 119.35251236 C-2.89809265 119.37338632 3.35010166 119.40170114 9.59838867 119.44702148 C15.62842328 119.49048504 21.65824781 119.51440222 27.68842697 119.52477264 C29.98893923 119.53216301 32.28944 119.5465946 34.58986282 119.5681839 C37.8123585 119.5972238 41.03398631 119.60121931 44.2565918 119.59936523 C45.20749695 119.61374634 46.1584021 119.62812744 47.13812256 119.64294434 C52.73926958 119.60807726 56.11245145 119.00563791 60.48461914 115.14526367 C61.85646204 113.39363834 61.85646204 113.39363834 62.61328125 111.46118164 C62.92611053 110.76281189 63.23893982 110.06444214 63.56124878 109.34490967 C63.865961 108.61902649 64.17067322 107.89314331 64.48461914 107.14526367 C64.80053009 106.43533264 65.11644104 105.72540161 65.44192505 104.99395752 C66.45762733 102.70136783 67.44438351 100.3979439 68.42602539 98.09057617 C68.7906337 97.2389389 69.155242 96.38730164 69.53089905 95.50985718 C70.70549215 92.7643949 71.8764952 90.01742043 73.04711914 87.27026367 C73.85412863 85.38023872 74.66125814 83.49026501 75.46850586 81.6003418 C77.06777987 77.85461014 78.66531572 74.10814408 80.26147461 70.36108398 C81.92966074 66.44540478 83.60232542 62.53167689 85.27836609 58.61935425 C86.55853544 55.62930639 87.8339025 52.63721344 89.10961914 49.64526367 C89.79133179 48.05609131 89.79133179 48.05609131 90.48681641 46.43481445 C90.89085693 45.4833252 91.29489746 44.53183594 91.71118164 43.55151367 C92.05745605 42.74004883 92.40373047 41.92858398 92.76049805 41.0925293 C93.6008013 39.17909073 93.6008013 39.17909073 93.48461914 37.14526367 C52.56461914 37.14526367 11.64461914 37.14526367 -30.51538086 37.14526367 Z " fill="#1D1F2E" transform="translate(283.515380859375,9.854736328125)"/>
<path d="M0 0 C1.27428864 -0.0071553 2.54857727 -0.01431061 3.86148071 -0.02168274 C5.28709387 -0.0245234 6.7127073 -0.02723508 8.13832092 -0.02983093 C9.62961486 -0.03609297 11.12090723 -0.04273953 12.61219788 -0.04974365 C16.67672461 -0.06718685 20.74123954 -0.07771614 24.80579448 -0.08594918 C27.34649978 -0.09109623 29.88720141 -0.09717234 32.42790413 -0.10346031 C40.38036071 -0.12252848 48.33280796 -0.13675165 56.28528303 -0.14507228 C65.45765448 -0.15482761 74.62978351 -0.18109553 83.8020696 -0.22157317 C90.89348454 -0.25178991 97.98483027 -0.26654673 105.07630831 -0.26985329 C109.30993263 -0.27219903 113.54329847 -0.28109584 117.77685356 -0.30631447 C121.76681458 -0.32969523 125.75634886 -0.3337886 129.74636078 -0.32355309 C131.20476518 -0.3230599 132.66319128 -0.32931579 134.12153053 -0.34310913 C145.73032529 -0.44669094 154.80360825 1.09387826 163.44715881 9.21357727 C168.88857099 15.4341293 170.65686702 22.76624708 170.52919006 30.87373352 C169.14058923 42.51020846 162.47850173 54.11718128 157.73988342 64.71186829 C154.91358005 71.04140846 152.19049908 77.39816673 149.56044006 83.81123352 C148.9448144 85.30165659 148.32892911 86.79197246 147.71278381 88.28218079 C146.80664839 90.47400099 145.90563964 92.66714871 145.02186584 94.86808777 C140.85063177 105.24949572 136.80679717 114.51643293 126.13075256 119.45576477 C123.82716532 120.25524505 121.53668027 120.71982523 119.13856506 121.14717102 C123.5921706 130.27281507 128.18662289 139.2521801 133.34339905 148.0045929 C136.13856506 152.82975054 136.13856506 152.82975054 136.13856506 156.14717102 C120.29856506 156.14717102 104.45856506 156.14717102 88.13856506 156.14717102 C81.38856506 143.58467102 81.38856506 143.58467102 79.28407288 139.664505 C75.57168764 132.74979356 75.57168764 132.74979356 71.68544006 125.93232727 C70.13856506 123.14717102 70.13856506 123.14717102 70.13856506 121.14717102 C43.40856506 121.47717102 16.67856506 121.80717102 -10.86143494 122.14717102 C-14.16143494 129.40717102 -17.46143494 136.66717102 -20.86143494 144.14717102 C-28.74934054 152.03507663 -28.74934054 152.03507663 -32.54893494 153.52217102 C-33.63754822 153.96689758 -33.63754822 153.96689758 -34.74815369 154.42060852 C-39.29866075 155.98510818 -43.18763164 156.26468661 -48.03330994 156.24482727 C-49.05693634 156.24270485 -49.05693634 156.24270485 -50.10124207 156.24053955 C-52.27135178 156.23496186 -54.44135664 156.22241356 -56.61143494 156.20967102 C-58.08669386 156.20465313 -59.5619544 156.20009073 -61.03721619 156.19599915 C-64.64532292 156.18499977 -68.25336869 156.16775055 -71.86143494 156.14717102 C-71.27860291 151.62492047 -70.08716369 147.94799229 -68.22862244 143.79170227 C-67.96048737 143.18606949 -67.69235229 142.58043671 -67.41609192 141.95645142 C-66.8345398 140.64462792 -66.24992807 139.33415739 -65.6625824 138.0249176 C-64.05050245 134.43008769 -62.46218071 130.82473364 -60.86924744 127.22138977 C-60.53666931 126.4709137 -60.20409119 125.72043762 -59.86143494 124.94721985 C-56.37978928 117.08324195 -52.98975097 109.18096383 -49.61143494 101.27217102 C-48.99007205 99.81902191 -48.36865209 98.3658972 -47.74717712 96.91279602 C-46.78759526 94.66888635 -45.82815351 92.42491726 -44.86912537 90.18077087 C-42.42099897 84.4525958 -39.9665977 78.72713162 -37.50987244 73.00263977 C-36.00197903 69.48835156 -34.49419173 65.97401784 -32.98643494 62.45967102 C-32.61426849 61.5923233 -32.24210205 60.72497559 -31.85865784 59.8313446 C-27.542919 49.7710272 -23.24380149 39.70394542 -18.97471619 29.62373352 C-18.57935669 28.6907695 -18.18399719 27.75780548 -17.7766571 26.79656982 C-15.87413274 22.3064676 -13.9742109 17.81529584 -12.07872009 13.32221985 C-11.40091347 11.72086317 -10.72302122 10.11954274 -10.04502869 8.51826477 C-9.73551773 7.78189789 -9.42600677 7.04553101 -9.1071167 6.28684998 C-6.60968299 0.39971491 -6.38314996 0.02447877 0 0 Z M10.13856506 37.14717102 C15.59739316 41.46176809 15.59739316 41.46176809 22.13856506 43.14717102 C21.80123352 43.90223938 21.46390198 44.65730774 21.11634827 45.43525696 C19.83847247 48.29752383 18.56194825 51.16038891 17.28627014 54.02363586 C16.47306742 55.84781525 15.65837591 57.67133071 14.84364319 59.49482727 C12.27419789 65.26425659 9.72528587 71.04232824 7.24403381 76.85029602 C6.63338074 78.27583801 6.63338074 78.27583801 6.01039124 79.73017883 C4.96891096 82.18927156 4.96891096 82.18927156 5.13856506 85.14717102 C16.7521956 85.19355549 28.36580402 85.22907133 39.9795084 85.25079536 C45.37248576 85.26122293 50.76539963 85.27536346 56.15834045 85.29804993 C61.36491455 85.3198148 66.57142766 85.33174738 71.77804375 85.33692551 C73.7623128 85.34061471 75.74657859 85.34781878 77.73082161 85.35863113 C80.51467674 85.3731944 83.29828135 85.37514693 86.08216858 85.3742218 C87.30676788 85.38500763 87.30676788 85.38500763 88.55610657 85.39601135 C94.40785529 85.3750328 100.05223588 85.22583734 104.39857483 80.89546204 C106.19894908 78.05179528 107.62950193 75.25804103 108.97840881 72.17451477 C109.48436584 71.02660461 109.99032288 69.87869446 110.51161194 68.69599915 C111.28601624 66.90839172 111.28601624 66.90839172 112.07606506 65.08467102 C112.84466858 63.33766907 112.84466858 63.33766907 113.62879944 61.55537415 C115.14716062 58.0922759 116.64747718 54.62209276 118.13856506 51.14717102 C118.63114807 50.00006653 119.12373108 48.85296204 119.63124084 47.6710968 C120.0886969 46.59199036 120.54615295 45.51288391 121.01747131 44.40107727 C121.42682922 43.43629456 121.83618713 42.47151184 122.25794983 41.47749329 C123.25639702 39.25055256 123.25639702 39.25055256 123.13856506 37.14717102 C85.84856506 37.14717102 48.55856506 37.14717102 10.13856506 37.14717102 Z " fill="#1D1F2E" transform="translate(660.8614349365234,238.8528289794922)"/>
<path d="M0 0 C1.24760101 -0.00571014 2.49520203 -0.01142029 3.78060913 -0.01730347 C5.17629995 -0.01854901 6.57199088 -0.01967407 7.96768188 -0.02069092 C9.42779669 -0.02531705 10.88791029 -0.03034143 12.34802246 -0.03573608 C16.32791327 -0.04889114 20.30778719 -0.05531231 24.28769636 -0.05974674 C26.77614666 -0.06267548 29.26459234 -0.06678015 31.75304031 -0.07125092 C39.5437192 -0.08494063 47.33438752 -0.09459725 55.12507761 -0.09845281 C64.10722457 -0.10292242 73.08921852 -0.12041287 82.07131898 -0.1494534 C89.01752893 -0.1711278 95.96369603 -0.18116033 102.90993941 -0.18249393 C107.0557967 -0.18353883 111.20151044 -0.18937792 115.347332 -0.20731354 C119.25598974 -0.22389156 123.16439762 -0.22590298 127.07307816 -0.21717453 C128.50041629 -0.21640904 129.92776837 -0.22068174 131.35507202 -0.23063278 C141.51253129 -0.29723788 152.39539349 -0.0788017 160.69668579 6.56622314 C167.03958149 12.95669056 169.7506023 19.64774022 170.57168579 28.51544189 C169.87755974 36.56730403 166.61858096 44.07595177 163.41543579 51.42559814 C163.04968445 52.27691315 162.68393311 53.12822815 162.30709839 54.00534058 C161.13021449 56.74039934 159.94527918 59.47186571 158.75918579 62.20294189 C157.94286902 64.08996545 157.12678959 65.9770917 156.3109436 67.86431885 C154.70095268 71.58623409 153.08737552 75.30657005 151.47207642 79.02618408 C149.83544602 82.80015794 148.21672149 86.58108064 146.6156311 90.37025452 C145.42190114 93.19307671 144.21409438 96.00987692 143.00918579 98.82794189 C142.40300415 100.28309204 142.40300415 100.28309204 141.78457642 101.76763916 C138.08553774 110.32360237 133.72164804 116.06032617 125.25918579 120.14044189 C123.26531749 120.82522919 121.26612088 121.49495294 119.25918579 122.14044189 C121.19597397 125.89518986 123.13492611 129.64880996 125.07583618 133.40142822 C125.73495181 134.6765156 126.39348918 135.95190207 127.05142212 137.2276001 C128.00064347 139.06783922 128.95198244 140.90697032 129.90371704 142.74591064 C130.47453003 143.85087891 131.04534302 144.95584717 131.63345337 146.09429932 C132.68636806 148.06715058 133.79578269 150.01127207 134.96890259 151.9151001 C136.25918579 154.14044189 136.25918579 154.14044189 136.25918579 156.14044189 C120.41918579 156.14044189 104.57918579 156.14044189 88.25918579 156.14044189 C81.89417573 144.82486845 75.56423684 133.48953379 69.25918579 122.14044189 C42.52918579 121.81044189 15.79918579 121.48044189 -11.74081421 121.14044189 C-12.07081421 122.79044189 -12.40081421 124.44044189 -12.74081421 126.14044189 C-16.75184975 137.06906048 -21.15967635 147.93349727 -31.99081421 153.64044189 C-37.10148365 155.92123652 -41.52178048 156.2603587 -47.13143921 156.23809814 C-47.83605286 156.2366832 -48.5406665 156.23526825 -49.26663208 156.23381042 C-51.50807005 156.22823123 -53.74940664 156.21568263 -55.99081421 156.20294189 C-57.51425026 156.1979242 -59.03768789 156.19336177 -60.56112671 156.18927002 C-64.28772193 156.17826864 -68.01425817 156.16101836 -71.74081421 156.14044189 C-71.13337693 150.92549552 -69.46030645 146.6692197 -67.37362671 141.91387939 C-67.02719116 141.10980652 -66.68075562 140.30573364 -66.32382202 139.47729492 C-65.17739963 136.82059389 -64.02161408 134.16807505 -62.86581421 131.51544189 C-62.05643185 129.644456 -61.24768637 127.77319448 -60.43954468 125.90167236 C-58.74277463 121.97513965 -57.04218897 118.05029272 -55.33847046 114.12677002 C-52.79801821 108.27535369 -50.26789545 102.41951827 -47.74081421 96.56231689 C-46.92392697 94.66916596 -46.10703248 92.77601816 -45.29013062 90.88287354 C-44.88965515 89.95475861 -44.48917969 89.02664368 -44.0765686 88.07040405 C-42.46773597 84.3432116 -40.85713509 80.61678437 -39.24658203 76.89033508 C-35.31458848 67.79191352 -31.39295996 58.68920746 -27.49081421 49.57794189 C-27.03811157 48.52131348 -26.58540894 47.46468506 -26.11898804 46.3760376 C-23.66315867 40.6405633 -21.21267 34.90284522 -18.76605225 29.16343689 C-17.3728702 25.89642074 -15.97779902 22.63021302 -14.58248901 19.36410522 C-13.90018499 17.765595 -13.21877808 16.16670152 -12.53829956 14.56741333 C-11.59364543 12.34733605 -10.64606635 10.12852887 -9.69784546 7.90997314 C-9.41304825 7.23856293 -9.12825104 6.56715271 -8.83482361 5.87539673 C-6.43590721 0.27701842 -6.09115537 0.01660869 0 0 Z M9.25918579 37.14044189 C14.71801389 41.45503896 14.71801389 41.45503896 21.25918579 43.14044189 C17.74645373 52.50903898 13.93130015 61.71535888 9.94668579 70.89044189 C8.8651016 73.38431389 7.78614576 75.87927697 6.70840454 78.37481689 C6.2374939 79.45988525 5.76658325 80.54495361 5.28140259 81.66290283 C4.19561831 83.84782064 4.19561831 83.84782064 4.25918579 85.14044189 C16.41157371 85.23315125 28.56387738 85.30421189 40.71654701 85.34769058 C46.35963056 85.36855896 52.00247203 85.39686337 57.64541626 85.44219971 C63.09190625 85.48568351 68.53816349 85.50958464 73.98481369 85.51995087 C76.06204263 85.52733763 78.13925893 85.54176227 80.2163887 85.56336212 C83.12758085 85.59242938 86.03781312 85.59639645 88.9491272 85.59454346 C90.23522385 85.61611511 90.23522385 85.61611511 91.54730225 85.63812256 C96.92435919 85.60112633 100.01302853 84.74749966 104.25918579 81.14044189 C105.72736119 78.89845861 106.84283665 76.92131444 107.94668579 74.51544189 C108.26701782 73.84754639 108.58734985 73.17965088 108.91738892 72.49151611 C113.25880871 63.27312615 117.19373926 53.85564885 121.13418579 44.46075439 C121.54410767 43.48380615 121.95402954 42.50685791 122.37637329 41.50030518 C123.37597913 39.24817032 123.37597913 39.24817032 123.25918579 37.14044189 C85.63918579 37.14044189 48.01918579 37.14044189 9.25918579 37.14044189 Z " fill="#1D1F2E" transform="translate(1270.7408142089844,9.85955810546875)"/>
<path d="M0 0 C1.46928906 0.00056505 2.93857869 0.00024572 4.40786743 -0.00088501 C8.37213433 -0.00145586 12.33627874 0.01025485 16.30051732 0.02426291 C20.45248995 0.03681512 24.60446579 0.03794429 28.75645447 0.04031372 C36.6079016 0.04651534 44.45929264 0.06290823 52.31071514 0.0830127 C61.25391387 0.10541284 70.19711537 0.11637546 79.1403352 0.12640357 C97.5271009 0.14727569 115.91381448 0.1824259 134.30053711 0.22705078 C133.82311923 1.66778263 133.34497163 3.10827269 132.86651611 4.54866028 C132.60032597 5.35085904 132.33413582 6.1530578 132.0598793 6.97956562 C130.57687122 11.36894195 128.82330329 15.6359888 127.05053711 19.91455078 C126.6934668 20.82527344 126.33639648 21.73599609 125.96850586 22.67431641 C123.5286984 28.527304 120.85168914 32.91319528 115.30053711 36.22705078 C112.01881176 37.26904281 108.97402803 37.3635901 105.5425415 37.38526917 C103.7799424 37.39995239 103.7799424 37.39995239 101.98173523 37.41493225 C100.69636368 37.42068771 99.41099213 37.42644318 98.08666992 37.43237305 C96.71663622 37.44195539 95.34660545 37.45196568 93.97657776 37.46237183 C90.2600098 37.48938841 86.54342918 37.51041553 82.82681751 37.53037381 C78.94171154 37.5522534 75.05664443 37.57963244 71.17156982 37.60643005 C63.8158279 37.65633026 56.46006438 37.701279 49.10428023 37.74445242 C40.72947233 37.79384763 32.35470343 37.84875729 23.97993326 37.90413201 C6.75350371 38.01791103 -10.47296259 38.12456335 -27.69946289 38.22705078 C-24.39946289 39.87705078 -21.09946289 41.52705078 -17.69946289 43.22705078 C-19.37944207 48.50698535 -21.18949344 53.27857009 -23.69946289 58.22705078 C-22.51088684 58.22625519 -21.32231079 58.22545959 -20.09771729 58.22463989 C-8.8581178 58.22102663 2.38102606 58.24899473 13.62047958 58.30732918 C19.39789275 58.33631484 25.17490225 58.35444324 30.95239258 58.34716797 C36.53536701 58.34054694 42.11754572 58.36321786 47.70035553 58.40560532 C49.82279882 58.41668717 51.94532328 58.4174815 54.06777191 58.40747452 C67.47901342 58.35238355 78.66291375 58.43592758 88.80053711 68.41455078 C92.99106993 74.01845858 96.19247284 81.91270722 95.73803711 88.98486328 C94.63703265 94.62751112 92.44443322 99.91514952 90.30053711 105.22705078 C89.96812012 106.06123535 89.63570312 106.89541992 89.29321289 107.75488281 C80.92577702 128.58477843 80.92577702 128.58477843 74.30053711 136.22705078 C73.67147461 136.98759766 73.04241211 137.74814453 72.39428711 138.53173828 C62.04790208 149.99769482 47.88886109 155.36349078 32.67761612 156.49703026 C28.85537292 156.59232476 25.03973078 156.59955134 21.21704102 156.56762695 C19.76671873 156.56677809 18.31639516 156.56726087 16.86607361 156.56895447 C12.97641417 156.56980574 9.0870394 156.55232294 5.19744539 156.5312326 C1.11491163 156.51231889 -2.9676306 156.51070389 -7.05020142 156.50715637 C-14.75985334 156.49787865 -22.46937573 156.47332355 -30.17897093 156.4431079 C-38.96508348 156.40942984 -47.75120262 156.39304438 -56.53736377 156.3780216 C-74.5914699 156.34676953 -92.64545593 156.29409335 -110.69946289 156.22705078 C-109.53278348 149.98499656 -106.98796988 144.52651193 -104.44946289 138.72705078 C-103.9712207 137.59912109 -103.49297852 136.47119141 -103.00024414 135.30908203 C-99.85116292 128.09777138 -97.3026375 122.36726386 -89.69946289 119.22705078 C-87.20824814 118.96533775 -87.20824814 118.96533775 -84.35906982 118.94857788 C-83.27655945 118.9374144 -82.19404907 118.92625092 -81.07873535 118.91474915 C-79.89622192 118.91258896 -78.7137085 118.91042877 -77.49536133 118.90820312 C-76.24632019 118.8981575 -74.99727905 118.88811188 -73.71038818 118.87776184 C-70.28921031 118.85217017 -66.86819827 118.8353149 -63.44696331 118.82233381 C-59.87013213 118.80669984 -56.29338495 118.77991048 -52.71661377 118.75430298 C-45.94524564 118.70751987 -39.17386169 118.67077353 -32.40241456 118.63763011 C-24.69262216 118.59940539 -16.98291415 118.54999615 -9.27319288 118.49964595 C6.58465711 118.39633307 22.44255357 118.30746733 38.30053711 118.22705078 C41.27053711 111.29705078 44.24053711 104.36705078 47.30053711 97.22705078 C44.44478027 97.21770508 41.58902344 97.20835937 38.64672852 97.19873047 C29.1870629 97.16488851 19.72761378 97.10929934 10.26812172 97.04314804 C4.53558877 97.00372223 -1.19679169 96.97150961 -6.92944336 96.95605469 C-12.46690369 96.94085605 -18.00394465 96.90635311 -23.5412178 96.85874176 C-25.64855926 96.84396109 -27.75596061 96.83601168 -29.86335373 96.83516693 C-32.82658798 96.83278556 -35.7886742 96.80561162 -38.75170898 96.77294922 C-39.61342712 96.77797958 -40.47514526 96.78300995 -41.36297607 96.78819275 C-48.82814625 96.66176449 -55.04478593 94.38663262 -61.44946289 90.60205078 C-68.39212436 83.2736859 -71.30667468 75.47894002 -71.23461914 65.50439453 C-70.5107688 56.93715196 -66.24820917 48.93237359 -62.69946289 41.22705078 C-62.35786133 40.46972656 -62.01625977 39.71240234 -61.66430664 38.93212891 C-54.04949678 22.1944782 -43.99110072 9.66020595 -26.30883789 2.98095703 C-17.38252281 0.40194684 -9.26159185 -0.05015702 0 0 Z " fill="#1D1F2E" transform="translate(321.699462890625,238.77294921875)"/>
<path d="M0 0 C1.42013166 -0.01949374 2.84083664 -0.01048716 4.26074219 0.02148438 C5.0167572 0.02144409 5.77277222 0.02140381 6.55169678 0.0213623 C8.15222475 0.02672255 9.7527516 0.04432735 11.35302734 0.07324219 C13.78533838 0.11485324 16.21485633 0.11433128 18.64746094 0.10742188 C20.20607369 0.11792406 21.76467229 0.13086769 23.32324219 0.14648438 C24.0432843 0.14668579 24.76332642 0.14688721 25.50518799 0.14709473 C31.1989234 0.27829827 35.70310189 1.44752885 40.28564453 4.92749023 C44.90326651 10.41468815 47.97790554 16.75549709 51.16174316 23.13330078 C52.90686104 26.6281273 54.68366036 30.10684155 56.45605469 33.58789062 C56.80780762 34.28085236 57.15956055 34.97381409 57.52197266 35.68777466 C60.50819906 41.55771964 63.62324529 47.35034026 66.80761719 53.11523438 C70.88061763 60.50567613 74.85289133 67.94040854 78.74511719 75.42773438 C79.24092285 76.3805127 79.73672852 77.33329102 80.24755859 78.31494141 C82.14354432 81.9614553 84.03764355 85.60891169 85.92431641 89.26025391 C87.17204793 91.67290495 88.42661384 94.0818822 89.68261719 96.49023438 C90.04895264 97.2041333 90.41528809 97.91803223 90.79272461 98.65356445 C92.50336677 102.26078459 92.50336677 102.26078459 95.55761719 104.61523438 C95.68257568 103.88626953 95.80753418 103.15730469 95.9362793 102.40625 C96.5379903 99.70339727 97.36468025 97.47825442 98.49902344 94.95898438 C98.90967041 94.03778809 99.32031738 93.1165918 99.7434082 92.16748047 C100.19772217 91.16023926 100.65203613 90.15299805 101.12011719 89.11523438 C102.12138869 86.86840474 103.12130241 84.62096971 104.12011719 82.37304688 C104.38937515 81.76804352 104.65863312 81.16304016 104.93605042 80.53970337 C108.20516079 73.18206313 111.39167535 65.7887903 114.58105469 58.39633179 C115.61926604 55.99220533 116.66030765 53.58932318 117.70214844 51.18676758 C120.69523954 44.27972652 123.67364821 37.3694312 126.55761719 30.41601562 C126.998396 29.36559082 127.4391748 28.31516602 127.89331055 27.23291016 C128.6751588 25.36549867 129.44547943 23.49318899 130.20043945 21.61474609 C133.37283249 14.08816051 137.92365937 7.20592869 145.55761719 3.67773438 C146.34136719 3.29746094 147.12511719 2.9171875 147.93261719 2.52539062 C153.28015108 0.67126057 158.75005263 0.49169721 164.36621094 0.51757812 C165.60693359 0.52080078 166.84765625 0.52402344 168.12597656 0.52734375 C169.40279297 0.53572266 170.67960938 0.54410156 171.99511719 0.55273438 C173.95094727 0.55950195 173.95094727 0.55950195 175.94628906 0.56640625 C179.15011271 0.57814187 182.35384081 0.59456075 185.55761719 0.61523438 C185.88761719 1.27523438 186.21761719 1.93523438 186.55761719 2.61523438 C185.80853131 4.75031925 184.94642588 6.84586383 184.04199219 8.91992188 C183.75999466 9.57269608 183.47799713 10.22547028 183.18745422 10.89802551 C182.23474571 13.09864642 181.27104538 15.29428768 180.30761719 17.49023438 C179.62251246 19.06777735 178.93820482 20.64566669 178.25463867 22.22387695 C176.78711019 25.60913592 175.31531626 28.99249476 173.84033203 32.37451172 C170.46575965 40.11558551 167.12273685 47.87027398 163.77685547 55.6237793 C162.60870303 58.32916906 161.43881508 61.03380273 160.26855469 63.73828125 C155.84270485 73.97148784 151.44187325 84.21503413 147.06947136 94.47119331 C146.25790216 96.37445266 145.44577245 98.27747178 144.63343811 100.18040466 C144.36577228 100.80745206 144.09810644 101.43449945 143.82232952 102.08054829 C143.28284458 103.34435497 142.74334024 104.60815338 142.20381641 105.87194347 C140.88560815 108.96065506 139.56969083 112.05030206 138.25662231 115.14120483 C128.69550705 137.6471562 128.69550705 137.6471562 124.66699219 145.99804688 C123.93174316 147.52389404 123.93174316 147.52389404 123.18164062 149.08056641 C120.68463944 152.9777201 117.93543679 155.15596117 113.55761719 156.61523438 C110.96922314 156.73583727 108.40855237 156.80331191 105.81933594 156.81835938 C105.06094925 156.82405945 104.30256256 156.82975952 103.52119446 156.83563232 C101.91656892 156.84507293 100.31192407 156.85161258 98.70727539 156.85546875 C96.26446264 156.86515765 93.82249758 156.89618178 91.37988281 156.92773438 C89.81803883 156.93426665 88.25618885 156.93951624 86.69433594 156.94335938 C85.96913254 156.95570618 85.24392914 156.96805298 84.49674988 156.98077393 C79.75211156 156.96015514 76.53464584 156.21487729 72.55761719 153.61523438 C69.5387743 150.37851244 67.47468624 146.88666179 65.41308594 142.98632812 C64.82672363 141.88385742 64.24036133 140.78138672 63.63623047 139.64550781 C63.0058093 138.44794303 62.37543967 137.25035111 61.74511719 136.05273438 C61.07883456 134.79625937 60.41199459 133.54007977 59.74462891 132.28417969 C58.36132069 129.6799925 56.98040496 127.07455761 55.60107422 124.46826172 C52.48591617 118.58754804 49.33126226 112.72806882 46.18261719 106.86523438 C40.51553311 96.2931861 34.87447739 85.70741072 29.24511719 75.11523438 C28.872276 74.41402466 28.49943481 73.71281494 28.11529541 72.99035645 C27.05773855 71.00103479 26.00090234 69.01133222 24.94433594 67.02148438 C24.03494263 65.30928711 24.03494263 65.30928711 23.10717773 63.5625 C21.89601515 61.25886762 20.70803727 58.94956463 19.55761719 56.61523438 C11.5147125 74.47712504 3.73411157 92.4438233 -3.94580078 110.46435547 C-5.74785906 114.69199544 -7.56171604 118.91444226 -9.38012695 123.1350708 C-10.45094805 125.63523257 -11.50460624 128.14219571 -12.55761719 130.64990234 C-13.24257115 132.25188125 -13.92809385 133.85361712 -14.61425781 135.45507812 C-14.91180969 136.17619278 -15.20936157 136.89730743 -15.51593018 137.64027405 C-18.49375308 144.51137526 -22.59723333 150.32198461 -29.56738281 153.49023438 C-30.39496094 153.87953125 -31.22253906 154.26882812 -32.07519531 154.66992188 C-36.76929913 156.54446498 -40.75596234 156.73303763 -45.83300781 156.71289062 C-46.53762146 156.71147568 -47.24223511 156.71006073 -47.96820068 156.70860291 C-50.20963865 156.70302371 -52.45097524 156.69047511 -54.69238281 156.67773438 C-56.21581887 156.67271668 -57.73925649 156.66815425 -59.26269531 156.6640625 C-62.98929053 156.65306112 -66.71582677 156.63581084 -70.44238281 156.61523438 C-67.85131684 148.21052217 -64.37335007 140.23418191 -60.87988281 132.17773438 C-60.21884339 130.64575953 -59.55820892 129.11360989 -58.89794922 127.58129883 C-57.48719888 124.30784253 -56.0748165 121.0350967 -54.66162109 117.76269531 C-52.40036807 112.52241056 -50.15231984 107.27652188 -47.90722656 102.02929688 C-47.52949097 101.14651062 -47.15175537 100.26372437 -46.76257324 99.35418701 C-45.99768671 97.56653444 -45.23281449 95.77887574 -44.46795654 93.99121094 C-38.42271815 79.8656653 -32.35306651 65.75120788 -26.22558594 51.66113281 C-23.26282708 44.84151696 -20.32726833 38.01124016 -17.41503906 31.16992188 C-16.72650137 29.55459749 -16.03794351 27.9392817 -15.34936523 26.32397461 C-14.02127393 23.20799349 -12.69796489 20.09003845 -11.37719727 16.97094727 C-10.7714974 15.548916 -10.16563012 14.12695603 -9.55957031 12.70507812 C-9.28826797 12.06065765 -9.01696564 11.41623718 -8.73744202 10.75228882 C-7.99990962 9.02791973 -7.22239745 7.32080758 -6.44238281 5.61523438 C-6.04196777 4.65625244 -5.64155273 3.69727051 -5.22900391 2.70922852 C-3.44238281 0.61523438 -3.44238281 0.61523438 0 0 Z " fill="#1D1F2E" transform="translate(685.4423828125,9.384765625)"/>
<path d="M0 0 C1.27741058 -0.00137466 2.55482117 -0.00274933 3.87094116 -0.00416565 C5.27900719 -0.00062696 6.68707299 0.00300784 8.09513855 0.00672913 C9.58354185 0.00701132 11.07194529 0.00685264 12.56034851 0.00628662 C16.59505994 0.00599989 20.6297416 0.01187664 24.66444612 0.01886058 C28.8831786 0.02511469 33.10191178 0.02569955 37.32064819 0.02688599 C45.30678888 0.02999323 53.29291587 0.03819845 61.27905053 0.04823548 C70.37209921 0.05941545 79.46514854 0.06491182 88.55820239 0.06993091 C107.26087051 0.08038155 125.96352589 0.09796926 144.66618347 0.12025452 C143.67670705 6.48048884 141.48651338 11.74415349 138.91618347 17.62025452 C138.4856366 18.63990295 138.05508972 19.65955139 137.61149597 20.71009827 C132.07930605 33.44738584 132.07930605 33.44738584 126.35457325 36.25324059 C123.47191414 37.18290697 121.19105331 37.38106346 118.16757202 37.39872742 C117.07527283 37.4098909 115.98297363 37.42105438 114.85757446 37.43255615 C113.66930557 37.43471634 112.48103668 37.43687653 111.25675964 37.43910217 C109.99781891 37.4491478 108.73887817 37.45919342 107.44178772 37.46954346 C103.99799163 37.49680137 100.55423635 37.5119803 97.11036086 37.52497149 C93.50817809 37.54062051 89.90607842 37.56740507 86.30395508 37.59300232 C79.48657919 37.63975879 72.66918762 37.67651802 65.85173351 37.70967519 C58.08871508 37.74791874 50.3257802 37.79732304 42.56283224 37.84765935 C26.59734208 37.95093262 10.63180588 38.03981207 -5.33381653 38.12025452 C0.11118347 40.59525452 0.11118347 40.59525452 5.66618347 43.12025452 C3.39559862 49.93200906 0.4946106 56.52059123 -2.33381653 63.12025452 C46.17618347 63.61525452 46.17618347 63.61525452 95.66618347 64.12025452 C94.61911933 69.35557522 92.91629399 73.73138095 90.85368347 78.62025452 C90.51014832 79.46201233 90.16661316 80.30377014 89.81266785 81.17103577 C87.47305993 86.7457113 85.3965505 91.39696866 80.11598206 94.72982788 C75.70666398 96.50698476 72.06027338 96.52000758 67.35612488 96.46083069 C66.43841309 96.46126877 65.52070129 96.46170685 64.57518005 96.4621582 C61.55581546 96.4600759 58.53701302 96.43677105 55.51774597 96.41322327 C53.41882124 96.40762533 51.31989258 96.40335617 49.22096252 96.40036011 C43.70698654 96.38892694 38.19324907 96.35947274 32.67936707 96.32624817 C27.04870327 96.29551443 21.41800079 96.2818477 15.78727722 96.26673889 C4.74680807 96.23460172 -6.29348437 96.18342371 -17.33381653 96.12025452 C-17.89069153 97.94556702 -17.89069153 97.94556702 -18.45881653 99.80775452 C-20.67029228 106.07360248 -23.54931839 112.08717522 -26.33381653 118.12025452 C13.26618347 118.45025452 52.86618347 118.78025452 93.66618347 119.12025452 C92.53093718 125.93173225 90.22581061 131.39585091 87.47868347 137.68275452 C87.00882019 138.80617249 86.53895691 139.92959045 86.05485535 141.08705139 C83.40213756 147.17780725 81.35188412 151.52638841 75.66618347 155.12025452 C72.50160054 156.17511549 70.25459363 156.25378416 66.93041992 156.26742554 C65.73463318 156.27458084 64.53884644 156.28173615 63.30682373 156.28910828 C61.3361216 156.29314163 61.3361216 156.29314163 59.3256073 156.29725647 C57.92929414 156.30352241 56.53298265 156.31016932 55.13667297 156.31716919 C50.54886534 156.33819967 45.96105742 156.34857184 41.37321472 156.35853577 C39.79248729 156.36258395 38.21176002 156.36670089 36.63103294 156.37088585 C29.20291268 156.3899367 21.77480234 156.40416695 14.34666234 156.41249782 C5.77988896 156.42226489 -2.78662567 156.44857082 -11.3533079 156.48899871 C-17.97934313 156.51919204 -24.60530432 156.53396981 -31.23140699 156.53727883 C-35.18660643 156.53962601 -39.14152942 156.54854258 -43.09665489 156.57374001 C-46.82071385 156.5970818 -50.54431555 156.60122977 -54.2684288 156.59097862 C-56.27793045 156.59025 -58.28740919 156.60929902 -60.29681396 156.62904358 C-67.44826265 156.58799975 -72.28880165 156.05824846 -78.33381653 152.12025452 C-81.43575569 148.41794003 -82.25644089 144.91754403 -82.33381653 140.12025452 C-79.37486689 129.14873601 -73.85952397 118.5792578 -69.33381653 108.18275452 C-68.46828302 106.1876396 -67.60313341 104.1923581 -66.73835754 102.19691467 C-65.0343626 98.26516398 -63.3292581 94.33389782 -61.62336731 90.40296936 C-59.27825253 84.99579339 -56.94719669 79.58279725 -54.62800598 74.16444397 C-53.72442073 72.05369355 -52.81801181 69.94414964 -51.9087677 67.83583069 C-49.25333969 61.66617645 -46.64986378 55.47892714 -44.09106445 49.2686615 C-42.5156775 45.45442851 -40.92373094 41.64720673 -39.33018494 37.8405304 C-38.55177491 35.96972174 -37.78061613 34.09587649 -37.01737976 32.21882629 C-27.25063785 8.21770683 -27.25063785 8.21770683 -15.58381653 2.55775452 C-10.4178123 0.55831955 -5.52212158 -0.00459029 0 0 Z " fill="#1D1F2E" transform="translate(1094.3338165283203,9.879745483398438)"/>
<path d="M0 0 C1.29698822 -0.00274933 2.59397644 -0.00549866 3.93026733 -0.0083313 C5.34996127 -0.00125481 6.76965425 0.00601478 8.18934631 0.01345825 C9.69774874 0.01402294 11.20615172 0.01370468 12.71455383 0.01257324 C16.79463628 0.01200098 20.87460039 0.02373472 24.95465541 0.03772116 C29.22408744 0.05024968 33.49352239 0.05140069 37.76296997 0.05377197 C45.84114507 0.05998051 53.91926583 0.07638284 61.99741703 0.09647095 C71.19691302 0.11884946 80.39641163 0.12982829 89.59592807 0.13986182 C108.51389838 0.16074963 127.43181817 0.19591342 146.3497467 0.24050903 C145.21416785 6.25182321 142.9290597 11.59899374 140.5997467 17.24050903 C139.95392639 18.8608606 139.95392639 18.8608606 139.2950592 20.51394653 C136.46940086 27.36659102 134.15554145 32.14167952 127.45922852 35.83457947 C122.16120216 38.02169534 116.63407709 37.67990852 110.98866272 37.67288208 C109.75869064 37.68307373 108.52871857 37.69326538 107.26147461 37.70376587 C103.90649673 37.72869881 100.55195595 37.74060612 97.19692349 37.74661994 C93.68415246 37.75603061 90.17150669 37.78223606 86.65881348 37.80662537 C80.0150361 37.85022029 73.37128313 37.87881016 66.72740644 37.90194875 C59.1602057 37.92903813 51.59313141 37.97294724 44.02602112 38.01823747 C28.46732581 38.11098331 12.90861098 38.18211336 -2.6502533 38.24050903 C0.6497467 39.89050903 3.9497467 41.54050903 7.3497467 43.24050903 C5.07916186 50.05226358 2.17817383 56.64084574 -0.6502533 63.24050903 C47.8597467 63.73550903 47.8597467 63.73550903 97.3497467 64.24050903 C95.38802353 70.12567856 93.41676316 75.8144708 90.9747467 81.49050903 C90.6963092 82.17113403 90.4178717 82.85175903 90.1309967 83.55300903 C87.92592551 88.67830964 85.33964171 92.64081415 80.25717163 95.36010742 C76.21627148 96.58373833 72.44422327 96.50301444 68.24501038 96.46755981 C66.88329208 96.46799789 66.88329208 96.46799789 65.49406433 96.46844482 C62.50184986 96.46705462 59.50988628 96.45150787 56.51771545 96.43582153 C54.43978003 96.43209031 52.36184284 96.42924385 50.28390503 96.42724609 C44.82093936 96.41961828 39.35808043 96.39997704 33.89515686 96.37783813 C28.31818587 96.3573614 22.7411976 96.34824046 17.16419983 96.33816528 C6.22600195 96.3167304 -4.71211679 96.28260467 -15.6502533 96.24050903 C-16.0215033 97.45738403 -16.3927533 98.67425903 -16.7752533 99.92800903 C-18.98672905 106.193857 -21.86575516 112.20742974 -24.6502533 118.24050903 C14.9497467 118.57050903 54.5497467 118.90050903 95.3497467 119.24050903 C94.14111235 125.28368081 91.94456469 130.5614412 89.5997467 136.24050903 C88.95392639 137.8608606 88.95392639 137.8608606 88.2950592 139.51394653 C84.89361719 147.76295262 81.74287513 152.58460937 73.3497467 156.24050903 C70.41055298 156.61803246 70.41055298 156.61803246 67.27772522 156.62145996 C66.08333832 156.62991943 64.88895142 156.63837891 63.65837097 156.64709473 C62.36156403 156.64102203 61.06475708 156.63494934 59.72865295 156.62869263 C58.33850187 156.63276116 56.94835403 156.63810462 55.55821228 156.6446228 C51.7937409 156.65826887 48.02951691 156.65300907 44.26504135 156.64348555 C40.32004392 156.63587485 36.37506726 156.64293847 32.43006897 156.64764404 C25.80592559 156.6530975 19.18188264 156.64592078 12.55775452 156.63162231 C4.90620531 156.61529654 -2.74510406 156.62058534 -10.39664745 156.63710153 C-16.97347404 156.65072812 -23.55022855 156.65263034 -30.1270647 156.64478552 C-34.0518976 156.64011544 -37.97661788 156.63946581 -41.90144348 156.64939499 C-45.59186368 156.6580795 -49.28197553 156.65201593 -52.97236252 156.63471222 C-54.96786326 156.62887202 -56.96339016 156.63775025 -58.95887756 156.64709473 C-60.15326447 156.63863525 -61.34765137 156.63017578 -62.57823181 156.62145996 C-63.61206497 156.62032888 -64.64589813 156.61919781 -65.71105957 156.61803246 C-70.51378294 156.0011488 -73.73694284 154.25255575 -76.9627533 150.67800903 C-80.27345654 145.89588212 -80.33383184 141.96249168 -79.6502533 136.24050903 C-78.29268329 131.87994321 -76.38791294 127.81424028 -74.4627533 123.67800903 C-73.5776687 121.71673008 -72.69984668 119.75228401 -71.82180786 117.7878418 C-71.17521146 116.34280349 -70.52638256 114.89876247 -69.87554932 113.45562744 C-65.72375256 104.23683349 -61.77364812 94.93160771 -57.80516052 85.63284302 C-56.45958002 82.48308096 -55.10980501 79.33514982 -53.75865173 76.18777466 C-49.73426767 66.81053483 -45.720972 57.42927003 -41.76654053 48.02227783 C-40.13943674 44.15320267 -38.50465659 40.28739278 -36.86933899 36.42178345 C-36.10716481 34.61367358 -35.34894754 32.80388989 -34.59498596 30.99234009 C-33.55170756 28.48612252 -32.49499459 25.98596093 -31.43540955 23.48660278 C-31.13934814 22.76482346 -30.84328674 22.04304413 -30.53825378 21.2993927 C-26.96755622 12.96226191 -22.08557723 6.06531321 -13.6502533 2.24050903 C-8.96318592 0.71664207 -4.92206986 -0.00808886 0 0 Z " fill="#1D1F2E" transform="translate(1180.6502532958984,238.75949096679688)"/>
<path d="M0 0 C1.91091919 -0.36076355 1.91091919 -0.36076355 4.26611328 -0.34057617 C5.14687531 -0.34034958 6.02763733 -0.34012299 6.93508911 -0.33988953 C7.88721283 -0.32440567 8.83933655 -0.30892181 9.8203125 -0.29296875 C10.79410858 -0.28872391 11.76790466 -0.28447906 12.77120972 -0.28010559 C15.88941805 -0.26327786 19.00698617 -0.22561811 22.125 -0.1875 C24.23566777 -0.17245846 26.34634564 -0.15876914 28.45703125 -0.14648438 C33.63824023 -0.11336109 38.81907439 -0.06312151 44 0 C43.4353555 4.12097224 42.50909658 7.58311062 40.83862305 11.38769531 C40.39113205 12.41606506 39.94364105 13.44443481 39.48258972 14.50396729 C38.9972023 15.60093933 38.51181488 16.69791138 38.01171875 17.828125 C37.51211136 18.97230896 37.01250397 20.11649292 36.49775696 21.29534912 C35.17079771 24.33167163 33.83822553 27.36539322 32.50256348 30.39788818 C30.63150069 34.64960303 28.77083486 38.90587696 26.90937805 43.1618042 C25.91997434 45.42229558 24.92838681 47.68183282 23.93424988 49.94024658 C21.16561288 56.24751695 18.50906123 62.58487103 16 69 C28.40735754 60.77289912 40.73288124 52.43464288 53 44 C54.03205566 43.29061279 54.03205566 43.29061279 55.08496094 42.56689453 C57.70645012 40.7648606 60.32773205 38.96252641 62.94848633 37.15942383 C69.65918655 32.54337381 76.38190228 27.94493748 83.10546875 23.34765625 C86.44274019 21.06574403 89.77854048 18.78170259 93.11328125 16.49609375 C94.37241333 15.63346924 94.37241333 15.63346924 95.65698242 14.75341797 C97.24468133 13.66563455 98.83210615 12.57745092 100.41918945 11.48876953 C102.60995906 9.9883086 104.80439785 8.4933788 107 7 C108.21187988 6.17024658 108.21187988 6.17024658 109.44824219 5.32373047 C110.24649414 4.78248535 111.04474609 4.24124023 111.8671875 3.68359375 C112.5876123 3.1930249 113.30803711 2.70245605 114.05029297 2.19702148 C117.93394831 -0.18734643 121.21784828 -0.12164326 125.67456055 -0.11352539 C126.347995 -0.11367142 127.02142944 -0.11381744 127.715271 -0.1139679 C129.93911979 -0.11327175 132.16288461 -0.10549332 134.38671875 -0.09765625 C135.92942764 -0.09579101 137.47213711 -0.09436761 139.0148468 -0.09336853 C143.07383868 -0.08955169 147.13279473 -0.07972851 151.19177246 -0.06866455 C155.33422359 -0.05843252 159.4766805 -0.05386707 163.61914062 -0.04882812 C171.74611018 -0.03810551 179.87305063 -0.02103907 188 0 C186.5910018 4.22699459 183.50690677 5.64569278 179.9375 8 C178.45821742 8.9959216 176.97905379 9.99201991 175.5 10.98828125 C174.74460937 11.49311035 173.98921875 11.99793945 173.2109375 12.51806641 C169.93445069 14.71420984 166.68551129 16.94955126 163.4375 19.1875 C162.47312012 19.84999756 162.47312012 19.84999756 161.48925781 20.52587891 C155.53808282 24.61749011 149.61300786 28.74634414 143.6875 32.875 C135.88862102 38.30865042 128.06637109 43.7053141 120.21264648 49.05932617 C113.86286172 53.39421761 107.55467434 57.78733593 101.25 62.1875 C92.57431642 68.24033608 83.84024522 74.19029698 75 80 C78.09567998 86.02764612 81.6830993 91.44673077 85.71875 96.8828125 C88.25952403 100.35462358 90.69886868 103.88516993 93.125 107.4375 C97.376137 113.65387005 101.67459954 119.83508173 106 126 C107.76259482 128.51795803 109.52463864 131.03630093 111.28662109 133.5546875 C112.41522496 135.16541653 113.54571325 136.77482707 114.67822266 138.3828125 C116.2284548 140.58476727 117.77124465 142.79175665 119.3125 145 C119.77462891 145.65226563 120.23675781 146.30453125 120.71289062 146.9765625 C122.7918902 149.96930308 124.25970579 152.43808865 125 156 C118.22518138 156.40836077 111.45355774 156.68686412 104.66918945 156.87890625 C102.3665519 156.95899237 100.06471877 157.06791629 97.76489258 157.20703125 C79.2748766 158.29680034 79.2748766 158.29680034 73.97006226 154.57632446 C70.46221611 150.90643707 68.22008582 146.64200121 66.04660034 142.09039307 C64.49046856 138.98230398 62.53992845 136.32392415 60.49609375 133.51171875 C59.81869141 132.53912109 59.14128906 131.56652344 58.44335938 130.56445312 C57.78142578 129.61505859 57.11949219 128.66566406 56.4375 127.6875 C55.06093234 125.71242466 53.684618 123.73717273 52.30859375 121.76171875 C51.71876709 120.91569092 51.12894043 120.06966309 50.52124023 119.19799805 C49.330236 117.47714888 48.16087672 115.74131508 47 114 C44.74420102 113.52376333 44.74420102 113.52376333 42.09130859 113.56762695 C41.07040131 113.54783279 40.04949402 113.52803864 38.99765015 113.50764465 C37.89240997 113.50125473 36.7871698 113.49486481 35.6484375 113.48828125 C34.5192691 113.47033005 33.39010071 113.45237885 32.22671509 113.43388367 C28.60951507 113.37957112 24.99244854 113.34581734 21.375 113.3125 C18.92706467 113.27934548 16.479147 113.2448576 14.03125 113.20898438 C8.02095305 113.12383274 2.01063925 113.05557192 -4 113 C-4.13269287 113.7435675 -4.26538574 114.48713501 -4.40209961 115.25323486 C-4.92901212 117.67388042 -5.58525088 119.68638581 -6.56640625 121.94824219 C-6.88343506 122.68540466 -7.20046387 123.42256714 -7.52709961 124.18206787 C-7.86878174 124.96245422 -8.21046387 125.74284058 -8.5625 126.546875 C-9.08952515 127.76458588 -9.08952515 127.76458588 -9.62719727 129.00689697 C-10.3679611 130.71572875 -11.11109376 132.42353537 -11.85644531 134.13037109 C-13.00107933 136.7524725 -14.13783346 139.37788325 -15.2734375 142.00390625 C-15.99433245 143.66426196 -16.71567111 145.3244251 -17.4375 146.984375 C-17.77918213 147.77285828 -18.12086426 148.56134155 -18.47290039 149.37371826 C-20.88386894 154.88386894 -20.88386894 154.88386894 -22 156 C-23.41225046 156.0928726 -24.82908934 156.11746772 -26.24438477 156.11352539 C-27.14524307 156.11344986 -28.04610138 156.11337433 -28.97425842 156.11329651 C-29.95341721 156.10813522 -30.93257599 156.10297394 -31.94140625 156.09765625 C-32.93881332 156.0962413 -33.9362204 156.09482635 -34.96385193 156.09336853 C-38.16343124 156.08775114 -41.36294169 156.07519571 -44.5625 156.0625 C-46.72591045 156.05748724 -48.88932199 156.05292395 -51.05273438 156.04882812 C-56.36851325 156.03777607 -61.68425171 156.02102104 -67 156 C-66.38940287 152.4164558 -65.42142145 149.33858062 -63.96557617 146.01147461 C-63.54345856 145.04008041 -63.12134094 144.06868622 -62.68643188 143.06785583 C-62.22658905 142.02323685 -61.76674622 140.97861786 -61.29296875 139.90234375 C-60.8163681 138.80886124 -60.33976746 137.71537872 -59.84872437 136.58876038 C-58.29938837 133.03639849 -56.74339667 129.4869926 -55.1875 125.9375 C-54.11978983 123.49178334 -53.05251449 121.0458836 -51.98608398 118.59960938 C-50.40923633 114.98315786 -48.83210079 111.36683651 -47.25312805 107.75131226 C-43.65628578 99.51482515 -40.0887263 91.2669562 -36.5625 83 C-30.4177627 68.61486308 -24.20466557 54.25951401 -17.9874115 39.90560913 C-16.01845338 35.35814727 -14.05502505 30.80835339 -12.09709167 26.25613403 C-10.89174875 23.45418237 -9.68426809 20.65315469 -8.47653198 17.85223389 C-7.91373491 16.54543454 -7.3519689 15.23819062 -6.79129028 13.93048096 C-6.02239061 12.13739982 -5.24957693 10.34599857 -4.4765625 8.5546875 C-4.04424316 7.54905762 -3.61192383 6.54342773 -3.16650391 5.50732422 C-2 3 -2 3 0 0 Z " fill="#1D1F2E" transform="translate(961,239)"/>
<path d="M0 0 C1.2890625 0.00322266 2.578125 0.00644531 3.90625 0.00976562 C5.25260486 0.01811892 6.59895902 0.02658384 7.9453125 0.03515625 C9.31510254 0.04017795 10.68489435 0.04473968 12.0546875 0.04882812 C15.3932744 0.06058371 18.73177065 0.07701661 22.0703125 0.09765625 C21.50059385 4.22754747 20.56809718 7.73426888 18.9375 11.56640625 C18.4727124 12.66750732 18.0079248 13.7686084 17.52905273 14.90307617 C17.00126263 16.13465572 16.47334403 17.3661802 15.9453125 18.59765625 C15.38365645 19.92075092 14.82256186 21.24408405 14.26196289 22.56762695 C12.9676274 25.61926799 11.66860538 28.66886641 10.36669922 31.71728516 C8.23019791 36.72033256 6.10125469 41.72657241 3.9732666 46.73324585 C-6.28674584 70.87229666 -16.58950502 94.99285716 -26.9296875 119.09765625 C-14.89019608 119.03645515 -2.85092162 118.95935592 9.18833447 118.86194134 C14.77861783 118.81720802 20.36882782 118.77795829 25.95922852 118.7512207 C31.35397099 118.72521748 36.74843153 118.68483589 42.14299965 118.63446999 C44.20144457 118.61778115 46.25993827 118.60627945 48.31844139 118.60004234 C51.20112053 118.59042332 54.08307509 118.56239 56.96557617 118.5300293 C57.81721848 118.53146439 58.66886078 118.53289948 59.54631042 118.53437805 C64.20062456 118.46045198 67.32079081 118.14720961 71.0703125 115.09765625 C73.55307465 112.31960218 74.93679753 109.41218157 76.35864258 105.98632812 C76.78497482 104.96800903 77.21130707 103.94968994 77.65055847 102.9005127 C78.33206718 101.25013 78.33206718 101.25013 79.02734375 99.56640625 C80.01610221 97.20038014 81.00520841 94.83449933 81.99462891 92.46875 C82.50819719 91.23618154 83.02172648 90.00359683 83.53521729 88.77099609 C85.96253319 82.96265525 88.42830384 77.17080789 90.89453125 71.37890625 C91.87045068 69.08463881 92.84636211 66.79036796 93.82226562 64.49609375 C94.30574463 63.36010742 94.78922363 62.22412109 95.28735352 61.05371094 C96.27364275 58.73561192 97.25931252 56.41724925 98.24438477 54.09863281 C101.08144859 47.4211021 103.92816656 40.74787901 106.79144287 34.08154297 C107.61768947 32.15372624 108.44056247 30.22445853 109.25933838 28.29345703 C110.3183651 25.7969123 111.389743 23.30606185 112.46484375 20.81640625 C112.90917 19.7566156 112.90917 19.7566156 113.36247253 18.67541504 C116.00134625 12.63261384 119.41167968 7.53517139 125.3828125 4.34765625 C126.08019531 3.9609375 126.77757812 3.57421875 127.49609375 3.17578125 C135.9690183 -0.37281841 143.99293973 -0.14292244 153.0703125 -0.02734375 C154.43098299 -0.01729353 155.79166067 -0.00817129 157.15234375 0 C160.45851897 0.02344805 163.7643213 0.05626769 167.0703125 0.09765625 C166.59669843 6.84739405 164.00262988 12.29336615 161.20703125 18.39453125 C160.19699838 20.64324896 159.18841646 22.89261884 158.18115234 25.14257812 C157.40430084 26.87157349 157.40430084 26.87157349 156.61175537 28.63549805 C154.18743694 34.08063915 151.85429354 39.56347472 149.52734375 45.05078125 C148.83998894 46.66861763 148.83998894 46.66861763 148.13874817 48.31913757 C147.19970565 50.53019069 146.26119786 52.74147097 145.32321167 54.95297241 C142.83500008 60.81710497 140.33905206 66.67794439 137.84375 72.5390625 C137.35057785 73.69759232 136.8574057 74.85612213 136.34928894 76.04975891 C127.72482679 96.3073041 127.72482679 96.3073041 124.00912476 104.95227051 C123.35290799 106.48114296 122.69856222 108.01082014 122.04629517 109.54138184 C114.0936505 128.19459042 106.33673112 143.10914179 87.0703125 152.09765625 C73.75430904 157.41913814 59.74627176 156.69045964 45.63758254 156.63495827 C42.20566717 156.62469793 38.77379062 156.63425846 35.34187317 156.64050293 C29.58859445 156.6477371 23.83552257 156.63829884 18.08227539 156.61914062 C11.45583931 156.59732787 4.82989484 156.60447183 -1.79652959 156.62644625 C-7.52097491 156.64465995 -13.24527323 156.64713114 -18.96973819 156.63669157 C-22.37369922 156.63049587 -25.77742981 156.62951246 -29.1813755 156.64283752 C-32.97387224 156.65304052 -36.76543392 156.63744983 -40.55786133 156.61523438 C-41.66718521 156.6233313 -42.77650909 156.63142822 -43.91944885 156.63977051 C-53.18208198 156.53968224 -61.45145783 154.36314159 -68.39453125 147.9453125 C-73.44427021 141.86763685 -76.49596116 134.17322866 -76.30297852 126.28588867 C-74.54586779 111.27862316 -64.98579535 95.47145897 -58.9921875 81.78515625 C-56.93057236 77.06455148 -54.87135689 72.34290205 -52.8125 67.62109375 C-52.30611496 66.46074112 -51.79972992 65.30038849 -51.27799988 64.10487366 C-48.24729946 57.15169233 -45.25060849 50.18542777 -42.296875 43.19921875 C-41.95339523 42.38860489 -41.60991547 41.57799103 -41.25602722 40.74281311 C-39.70291587 37.07590424 -38.1569033 33.4063062 -36.62329102 29.73120117 C-31.62461817 17.85195568 -27.24293255 7.75427877 -15.3046875 1.78515625 C-10.20130281 0.30786068 -5.29521939 -0.02343017 0 0 Z " fill="#1D1F2E" transform="translate(485.9296875,9.90234375)"/>
<path d="M0 0 C1.30873077 -0.00029205 2.61746155 -0.00058411 3.96585083 -0.00088501 C7.51467052 -0.00145306 11.06335185 0.01021132 14.6121397 0.02426291 C18.33567774 0.03686271 22.05921981 0.03794799 25.78277588 0.04031372 C32.81601756 0.04650155 39.84919622 0.06287539 46.88241029 0.0830127 C54.89703746 0.10545624 62.91166782 0.11638628 70.92631865 0.12640357 C87.39655386 0.14724437 103.86672589 0.18236722 120.33691406 0.22705078 C119.2952284 6.97899604 116.82445022 12.61933139 114.08691406 18.85205078 C113.36955078 20.54974609 113.36955078 20.54974609 112.63769531 22.28173828 C112.16203125 23.36970703 111.68636719 24.45767578 111.19628906 25.57861328 C110.55385254 27.06095459 110.55385254 27.06095459 109.8984375 28.57324219 C107.13024628 33.27778231 103.40913708 35.51048693 98.33691406 37.22705078 C95.70703411 37.48876381 95.70703411 37.48876381 92.83830261 37.50552368 C91.74600342 37.51668716 90.65370422 37.52785065 89.52830505 37.53935242 C88.34003616 37.5415126 87.15176727 37.54367279 85.92749023 37.54589844 C84.6685495 37.55594406 83.40960876 37.56598969 82.11251831 37.57633972 C78.66872222 37.60359763 75.22496694 37.61877656 71.78109145 37.63176775 C68.17890868 37.64741677 64.57680901 37.67420133 60.97468567 37.69979858 C54.15730978 37.74655506 47.33991821 37.78331428 40.5224641 37.81647146 C32.75944567 37.854715 24.99651079 37.9041193 17.23356283 37.95445561 C1.26807268 38.05772888 -14.69746352 38.14660833 -30.66308594 38.22705078 C-25.21808594 40.70205078 -25.21808594 40.70205078 -19.66308594 43.22705078 C-20.45799831 47.20161267 -21.31123299 50.06507291 -22.88452148 53.71313477 C-23.34557785 54.78873154 -23.80663422 55.86432831 -24.28166199 56.97251892 C-24.78264908 58.12772537 -25.28363617 59.28293182 -25.79980469 60.47314453 C-26.31686478 61.67584488 -26.83392487 62.87854523 -27.36665344 64.11769104 C-28.74267584 67.31824616 -30.1244615 70.51628097 -31.50750732 73.71380615 C-32.89283861 76.91923389 -34.27290762 80.12692443 -35.65332031 83.33447266 C-37.69750021 88.08305871 -39.74476926 92.8302998 -41.79467773 97.57641602 C-44.76154736 104.4553415 -47.71205637 111.34131512 -50.66308594 118.22705078 C-11.06308594 118.55705078 28.53691406 118.88705078 69.33691406 119.22705078 C68.12589368 125.28215268 65.89383096 130.54587379 63.52441406 136.22705078 C63.08548828 137.30728516 62.6465625 138.38751953 62.19433594 139.50048828 C61.76056641 140.54462891 61.32679688 141.58876953 60.87988281 142.66455078 C60.48824951 143.61201172 60.09661621 144.55947266 59.69311523 145.53564453 C56.92574227 151.02754724 54.11069718 154.02227855 48.33691406 156.22705078 C44.3379831 156.67098983 40.36007194 156.64709705 36.33984375 156.63110352 C35.1358342 156.63796677 33.93182465 156.64483002 32.69132996 156.65190125 C29.39968442 156.6670376 26.10839505 156.66867043 22.81672955 156.66295886 C20.0611227 156.65985995 17.30556665 156.66596767 14.54996705 156.67199761 C8.04254545 156.68603129 1.53525513 156.68449296 -4.97216797 156.6730957 C-11.66486035 156.66163226 -18.35715118 156.67566253 -25.04979062 156.70249218 C-30.81225681 156.72472019 -36.57459763 156.73127017 -42.33710361 156.72541577 C-45.77139571 156.72205984 -49.20543089 156.72436868 -52.63968658 156.74166679 C-56.47623698 156.75660458 -60.31191374 156.74587649 -64.1484375 156.72875977 C-65.27190079 156.73842773 -66.39536407 156.7480957 -67.5528717 156.75805664 C-76.86424493 156.6714126 -85.25711093 154.57253498 -92.12402344 147.94970703 C-97.63644286 141.77971474 -99.74553145 135.61641863 -99.80419922 127.32470703 C-99.04041983 115.00662928 -92.55800804 103.34294689 -87.49755859 92.26855469 C-85.73489612 88.40500882 -84.03694413 84.51615811 -82.36230469 80.61376953 C-82.09711533 79.99583023 -81.83192596 79.37789093 -81.55870056 78.7412262 C-81.0260282 77.4997791 -80.49340977 76.25830885 -79.96084595 75.01681519 C-78.8981958 72.54952049 -77.82229602 70.08810893 -76.74632263 67.62660217 C-74.48592846 62.45522272 -72.25308987 57.2742884 -70.07244873 52.06871033 C-68.92748385 49.33748448 -67.77272816 46.61044422 -66.61743164 43.88357544 C-66.07433615 42.59416331 -65.53590135 41.30277582 -65.00268555 40.00924683 C-58.81096303 24.99847789 -49.17541941 11.96579019 -34.06542969 5.03564453 C-22.96100401 0.7057174 -11.8134211 -0.07021087 0 0 Z " fill="#1D1F2E" transform="translate(98.6630859375,9.77294921875)"/>
<path d="M0 0 C1.75739832 0.00138269 1.75739832 0.00138269 3.55029964 0.00279331 C4.20043889 0.00193889 4.85057814 0.00108446 5.52041858 0.00020415 C7.71464604 -0.00145243 9.90879826 0.00407358 12.10301876 0.00952244 C13.66964879 0.0098043 15.23627895 0.0096466 16.8029089 0.00907993 C21.06925401 0.00879191 25.33557126 0.0146894 29.60190988 0.02165389 C34.05556076 0.02788665 38.50921221 0.02849116 42.96286678 0.0296793 C51.40246468 0.03279285 59.84204969 0.04100655 68.2816419 0.05102879 C77.88728468 0.0621892 87.49292806 0.06770019 97.09857571 0.07272422 C116.86365443 0.08318914 136.62872153 0.10078904 156.39379025 0.12304783 C155.28495435 6.00723755 153.01195461 11.14067887 150.64379025 16.62304783 C149.99796993 18.17185642 149.99796993 18.17185642 149.33910275 19.75195408 C146.04343939 27.39907713 142.99053185 32.2272829 135.39379025 36.12304783 C132.43055923 37.02639877 129.716087 37.27020891 126.62523556 37.32837009 C125.21422573 37.35828793 125.21422573 37.35828793 123.77471066 37.38881016 C122.26357693 37.4138789 122.26357693 37.4138789 120.72191525 37.43945408 C119.68436092 37.46023518 118.6468066 37.48101627 117.57781124 37.5024271 C114.26653766 37.56776191 110.95518542 37.62673299 107.64379025 37.68554783 C105.39768839 37.72874832 103.15159446 37.7723631 100.905509 37.8164072 C95.40168567 37.92342685 89.89778426 38.02522305 84.39379025 38.12304783 C77.87919584 53.11510575 71.38459544 68.11548137 64.94820309 83.14129734 C64.01478263 85.31990162 63.0804438 87.49811033 62.14598751 89.67627048 C59.18683741 96.57759061 56.23769926 103.48284395 53.31618404 110.40019321 C51.96324938 113.6018131 50.60534215 116.80131276 49.24700069 120.00064182 C48.60326822 121.52072526 47.96196499 123.04184011 47.32329464 124.56405735 C39.02993902 144.32719922 39.02993902 144.32719922 32.64379025 149.93554783 C32.0508215 150.47824314 31.45785275 151.02093845 30.84691525 151.58007908 C22.11959853 157.06939453 12.76520725 156.48490403 2.83129025 156.31054783 C1.33065265 156.29547175 -0.16999961 156.28178852 -1.67066288 156.2695322 C-5.31615427 156.23676264 -8.9610861 156.18514262 -12.60620975 156.12304783 C-10.64896203 149.94256343 -8.37892801 143.98574982 -5.797616 138.04101658 C-5.2537701 136.77626499 -5.2537701 136.77626499 -4.69893742 135.48596287 C-3.52559501 132.75934516 -2.34718867 130.03494888 -1.16870975 127.31054783 C-0.34754633 125.40486095 0.47325126 123.4990164 1.29369259 121.59301853 C2.91999441 117.81586561 4.54800585 114.03945752 6.17748165 110.26367283 C8.50736379 104.86286921 10.82303156 99.45610508 13.13500118 94.04760838 C18.4199748 81.6846117 23.74741897 69.34000618 29.08129025 56.99804783 C29.44007259 56.16743839 29.79885494 55.33682896 30.16850948 54.48104954 C31.18437242 52.12966881 32.20104701 49.77864089 33.218009 47.42773533 C33.52469006 46.7177187 33.83137112 46.00770206 34.14734554 45.27616978 C36.27874471 40.35313891 36.27874471 40.35313891 37.39379025 38.12304783 C19.24379025 37.79304783 1.09379025 37.46304783 -17.60620975 37.12304783 C-16.78978383 32.22449228 -15.67093343 28.45139587 -13.69995975 24.00976658 C-13.41519779 23.35474659 -13.13043583 22.6997266 -12.83704472 22.02485752 C-12.23836216 20.6511747 -11.63646251 19.27888989 -11.03150272 17.90795994 C-10.10260832 15.80238427 -9.18369362 13.69266934 -8.266366 11.5820322 C-7.68230247 10.24519366 -7.09768672 8.90859622 -6.51245975 7.57226658 C-6.09836857 6.62392193 -6.09836857 6.62392193 -5.6759119 5.6564188 C-3.24264205 0.15309591 -3.24264205 0.15309591 0 0 Z " fill="#1D1F2E" transform="translate(894.6062097549438,9.876952171325684)"/>
<path d="M0 0 C52.47 0 104.94 0 159 0 C157.92271199 6.46372807 155.88617012 11.59233675 153.3125 17.5625 C152.89033203 18.59052734 152.46816406 19.61855469 152.03320312 20.67773438 C148.75572051 28.30542016 146.19120365 32.08167007 138.4934082 35.60498047 C133.33423755 37.47755362 128.37025972 37.37821602 122.9375 37.29296875 C121.90560547 37.28872391 120.87371094 37.28447906 119.81054688 37.28010559 C116.54009033 37.26341801 113.27026783 37.22578395 110 37.1875 C107.77214437 37.17244036 105.544279 37.1587542 103.31640625 37.14648438 C97.8773907 37.1135471 92.43874067 37.0634475 87 37 C86.60176025 38.25369385 86.20352051 39.5073877 85.79321289 40.79907227 C83.92322544 46.40003083 81.63932399 51.79264841 79.30859375 57.21484375 C78.85082047 58.28794296 78.39304718 59.36104218 77.92140198 60.46665955 C76.43063242 63.95860688 74.93457 67.44824955 73.4375 70.9375 C71.61541836 75.18947923 69.79383152 79.44167027 67.9724617 83.69395447 C67.44563074 84.92356724 66.91858887 86.15308966 66.39133835 87.38252258 C63.21965689 94.77829686 60.0741084 102.18384952 56.97755432 109.61140442 C55.36884556 113.4696569 53.74946053 117.32338338 52.12918091 121.17678833 C51.3836317 122.95830053 50.64334608 124.74202577 49.90866089 126.52804565 C40.89049311 148.43524871 40.89049311 148.43524871 30.8125 152.9375 C29.58466797 153.50791016 29.58466797 153.50791016 28.33203125 154.08984375 C23.71785604 155.890686 19.80399713 156.11804917 14.828125 156.09765625 C13.8044986 156.09553383 13.8044986 156.09553383 12.76019287 156.09336853 C10.59008316 156.08779084 8.4200783 156.07524254 6.25 156.0625 C4.77474108 156.05748211 3.29948053 156.05291971 1.82421875 156.04882812 C-1.78388798 156.03782875 -5.39193375 156.02057953 -9 156 C-8.38952847 152.44722986 -7.44217583 149.36507693 -6.0234375 146.0546875 C-5.60835938 145.07967285 -5.19328125 144.1046582 -4.765625 143.10009766 C-4.30671875 142.03581543 -3.8478125 140.9715332 -3.375 139.875 C-2.88773437 138.73466309 -2.40046875 137.59432617 -1.8984375 136.41943359 C-0.8312394 133.92385753 0.23770871 131.42911543 1.30957031 128.93554688 C3.01170837 124.9751486 4.70541935 121.01117846 6.3984375 117.046875 C13.62321288 100.13980188 20.90119855 83.25563162 28.1875 66.375 C28.5992749 65.42071106 29.0110498 64.46642212 29.43530273 63.48321533 C30.61645438 60.74637601 31.79833111 58.00985106 32.98046875 55.2734375 C33.32780563 54.46855896 33.67514252 53.66368042 34.03300476 52.83441162 C36.32155953 47.5402232 38.65725764 42.2711703 41 37 C22.85 37 4.7 37 -14 37 C-14.33 36.34 -14.66 35.68 -15 35 C-10.05 23.45 -5.1 11.9 0 0 Z " fill="#1D1F2E" transform="translate(476,239)"/>
<path d="M0 0 C1.22244667 0.00333092 1.22244667 0.00333092 2.46958923 0.00672913 C3.39046829 0.00680466 4.31134735 0.00688019 5.26013184 0.00695801 C6.2611644 0.01211929 7.26219696 0.01728058 8.29356384 0.02259827 C9.31316696 0.02401321 10.33277008 0.02542816 11.38327026 0.02688599 C14.65417867 0.03250355 17.92501972 0.04505902 21.19590759 0.05775452 C23.40749515 0.06276725 25.61908377 0.06733055 27.83067322 0.07142639 C33.26494116 0.08247868 38.69916957 0.09923389 44.13340759 0.12025452 C42.37685214 5.60037501 40.46206367 10.91828363 38.14903259 16.19447327 C37.71716141 17.18544006 37.71716141 17.18544006 37.27656555 18.19642639 C36.64783029 19.63862766 36.01747356 21.0801229 35.38566589 22.52098083 C33.59696948 26.6021083 31.82263349 30.68947661 30.04747009 34.77650452 C29.66049957 35.66689926 29.27352905 36.55729401 28.87483215 37.47467041 C24.27436076 48.07498178 19.75362304 58.70918336 15.2318573 69.34324646 C13.7579368 72.80886149 12.2825659 76.27385554 10.80674744 79.73866272 C6.56843025 89.69030597 2.33299427 99.64309129 -1.88169861 109.60476685 C-3.5286513 113.49444319 -5.18083255 117.38188392 -6.83418274 121.2688446 C-7.59605174 123.06351356 -8.35551659 124.85920533 -9.11238098 126.6559906 C-10.15190033 129.12330504 -11.19969383 131.58694989 -12.24940491 134.04994202 C-12.54425781 134.75579941 -12.83911072 135.4616568 -13.14289856 136.18890381 C-16.51084571 144.0381989 -20.22461725 151.78452496 -28.49794006 155.20960999 C-32.4924049 156.2894298 -36.22666373 156.37152489 -40.32752991 156.31556702 C-41.51338181 156.31132217 -41.51338181 156.31132217 -42.72319031 156.30699158 C-45.22948324 156.29586407 -47.73540886 156.27077377 -50.24159241 156.24525452 C-51.94861847 156.23521509 -53.65565017 156.22609093 -55.36268616 156.21791077 C-59.53079481 156.19594915 -63.69863149 156.16147123 -67.86659241 156.12025452 C-68.19659241 155.46025452 -68.52659241 154.80025452 -68.86659241 154.12025452 C-67.95176166 151.62330922 -66.96847427 149.23979238 -65.88612366 146.81556702 C-65.56251862 146.07401871 -65.23891357 145.3324704 -64.90550232 144.56845093 C-63.83709835 142.12422203 -62.75799746 139.684864 -61.67909241 137.24525452 C-60.93189355 135.53998372 -60.18556272 133.83433233 -59.44007874 132.12831116 C-57.94223299 128.70166246 -56.44121821 125.27643109 -54.93788147 121.85218811 C-52.2713431 115.77042594 -49.65883436 109.66623259 -47.05409241 103.55775452 C-41.44348323 90.43589936 -35.78170498 77.33627649 -30.120224 64.23631287 C-25.10106423 52.6219215 -20.09323666 41.00292776 -15.11659241 29.37025452 C-8.76224099 14.52755499 -8.76224099 14.52755499 -5.67909241 7.43275452 C-5.39904358 6.78403381 -5.11899475 6.13531311 -4.83045959 5.4669342 C-2.51421071 0.16197708 -2.51421071 0.16197708 0 0 Z " fill="#1D1F2E" transform="translate(882.8665924072266,238.87974548339844)"/>
</svg>
