<?xml version="1.0" encoding="UTF-8"?>
<svg version="1.1" xmlns="http://www.w3.org/2000/svg" width="2000" height="573">
<path d="M0 0 C3.11134707 1.56368907 3.11134707 1.56368907 6.1953125 2.5234375 C6.1953125 -0.4465625 6.1953125 -3.4165625 6.1953125 -6.4765625 C22.3653125 -6.4765625 38.5353125 -6.4765625 55.1953125 -6.4765625 C58.63800751 15.32717258 58.63800751 15.32717258 59.58984375 23.04296875 C59.75876884 24.37968628 59.75876884 24.37968628 59.93110657 25.7434082 C60.29260105 28.60726521 60.6501994 31.47159351 61.0078125 34.3359375 C61.53114983 38.49236487 62.05657442 42.64852761 62.58203125 46.8046875 C62.71488525 47.85759476 62.84773926 48.91050201 62.98461914 49.99531555 C63.89611255 57.20520501 64.82892382 64.41206681 65.77734375 71.6171875 C65.97045387 73.08436974 65.97045387 73.08436974 66.16746521 74.58119202 C66.42468051 76.53453119 66.68193824 78.48786478 66.9392395 80.44119263 C69.52935492 100.11648674 71.95253294 119.80549944 74.1953125 139.5234375 C74.29172531 138.88676147 74.38813812 138.25008545 74.48747253 137.59411621 C79.76405426 102.77900236 85.19113788 67.98991303 90.82007217 33.22994995 C91.25903538 30.51587652 91.69641845 27.80155258 92.13339233 25.0871582 C92.8234892 20.80217623 93.51784159 16.51790585 94.21567154 12.23417664 C94.47398604 10.64488887 94.7309581 9.05538229 94.98653793 7.46565247 C95.33622237 5.29286115 95.69096305 3.1209572 96.04711914 0.94921875 C96.34496056 -0.88515747 96.34496056 -0.88515747 96.64881897 -2.7565918 C97.1953125 -5.4765625 97.1953125 -5.4765625 98.1953125 -6.4765625 C99.69949989 -6.56968139 101.20802606 -6.59402278 102.71508789 -6.59008789 C104.15646873 -6.58997459 104.15646873 -6.58997459 105.62696838 -6.58985901 C107.19413857 -6.58211708 107.19413857 -6.58211708 108.79296875 -6.57421875 C109.85696396 -6.5728038 110.92095917 -6.57138885 112.01719666 -6.56993103 C115.43076333 -6.56431314 118.8442655 -6.55175761 122.2578125 -6.5390625 C124.56575426 -6.53404981 126.87369705 -6.5294865 129.18164062 -6.52539062 C134.85288676 -6.5143379 140.52409503 -6.49758237 146.1953125 -6.4765625 C148.98118611 9.82690583 151.52527969 26.15290594 153.8828125 42.5234375 C154.22134654 44.8597948 154.55997202 47.19613885 154.89868164 49.5324707 C156.85822529 63.08091123 158.77924966 76.6345749 160.6796875 90.19140625 C160.78261927 90.92532719 160.88555103 91.65924812 160.99160194 92.41540909 C162.00628314 99.65113154 163.01908389 106.88710453 164.02402687 114.12418652 C164.30686345 116.1592521 164.59060386 118.19418938 164.87469482 120.2290802 C165.22295298 122.7248344 165.56952089 125.22082523 165.91412354 127.71708679 C166.06871033 128.82260391 166.22329712 129.92812103 166.38256836 131.06713867 C166.51610214 132.02931808 166.64963593 132.9914975 166.78721619 133.98283386 C167.1449376 136.20982854 167.60623089 138.3478636 168.1953125 140.5234375 C168.30354088 139.63096313 168.30354088 139.63096313 168.41395569 138.72045898 C172.20593877 107.49832482 176.27385649 76.34486268 180.91079712 45.23690796 C183.46891028 28.01787323 185.80691156 10.7665272 188.1953125 -6.4765625 C204.3653125 -6.4765625 220.5353125 -6.4765625 237.1953125 -6.4765625 C236.07026969 7.02395119 236.07026969 7.02395119 235.05957031 13.4621582 C234.9504129 14.16514038 234.84125549 14.86812256 234.72879028 15.59240723 C234.37274071 17.87866877 234.01067869 20.1639308 233.6484375 22.44921875 C233.3924493 24.08410722 233.13682186 25.71905221 232.88153076 27.35404968 C232.20995985 31.64822066 231.53317604 35.94155433 230.85534668 40.23474121 C230.31688347 43.65067233 229.78205075 47.06716665 229.24745941 50.48370552 C224.88461941 78.36429283 224.88461941 78.36429283 222.68945312 91.73974609 C222.57099911 92.46386153 222.45254509 93.18797697 222.33050156 93.9340353 C221.77699611 97.31735156 221.21977328 100.69989627 220.65509033 104.08137512 C220.36514191 105.84743355 220.36514191 105.84743355 220.06933594 107.64916992 C219.89964294 108.66911545 219.72994995 109.68906097 219.55511475 110.73991394 C219.20973237 113.41188163 218.96755061 115.83740868 219.1953125 118.5234375 C220.92528585 120.51607696 222.51480868 122.08861141 224.5078125 123.7734375 C225.05252197 124.25232422 225.59723145 124.73121094 226.15844727 125.22460938 C230.46882985 128.98612534 234.88873676 132.61862722 239.34375 136.20703125 C242.52148959 138.78840054 245.64175279 141.43080916 248.7578125 144.0859375 C252.5157171 147.28731876 256.30416085 150.42117235 260.1953125 153.4609375 C287.54132048 175.18606945 287.54132048 175.18606945 290.1953125 188.5234375 C290.46098245 191.77010754 290.47221017 195.01701093 290.5078125 198.2734375 C290.53681641 199.14226562 290.56582031 200.01109375 290.59570312 200.90625 C290.66074904 207.57095489 289.41562187 213.04488002 284.78271484 218.04931641 C277.43407083 224.55085448 268.59145351 225.07615168 259.1953125 224.5234375 C253.40050391 223.78862229 248.607773 222.53476523 244.1953125 218.5234375 C236.68663608 207.8861459 236.98598717 194.04938882 236.1953125 181.5234375 C226.47135907 182.1561605 216.85075599 183.24678708 207.1953125 184.5234375 C207.14250122 185.58304687 207.14250122 185.58304687 207.08862305 186.6640625 C206.6572963 193.57397123 205.83088597 200.31963919 204.71484375 207.1484375 C204.57795135 207.99059814 204.44105896 208.83275879 204.30001831 209.70043945 C203.72702175 213.20116202 203.14774633 216.70065964 202.55297852 220.19775391 C202.11566155 222.7836488 201.69533789 225.37185924 201.27734375 227.9609375 C201.13891556 228.74742676 201.00048737 229.53391602 200.85786438 230.34423828 C199.98820833 235.83102156 200.42061031 239.0162405 203.60546875 243.515625 C210.85936385 251.7812927 218.86111573 257.71459618 229.1328125 261.6484375 C231.1953125 262.5234375 231.1953125 262.5234375 232.1953125 264.5234375 C202.8253125 264.5234375 173.4553125 264.5234375 143.1953125 264.5234375 C137.20506683 227.61579485 131.43916642 190.68727743 125.88323975 153.712677 C124.01784977 141.31154916 122.11245236 128.91665919 120.1953125 116.5234375 C118.18105708 118.53769292 118.38788964 122.33979322 117.99609375 125.10546875 C117.7575731 126.7351895 117.51904748 128.36490951 117.28051758 129.99462891 C117.09243027 131.29608856 117.09243027 131.29608856 116.90054321 132.62384033 C114.91660349 146.32441715 112.8360854 160.00190565 110.5078125 173.6484375 C108.36914272 186.18576805 106.3655854 198.74219842 104.40625 211.30859375 C104.15645452 212.90887547 103.90665286 214.50915623 103.65684509 216.10943604 C102.51862746 223.40520369 101.38356541 230.7014351 100.25705719 237.99902058 C99.78307527 241.06434045 99.30583804 244.12914763 98.82785416 247.19384575 C98.60223666 248.64563379 98.37812283 250.09765635 98.15554428 251.54991341 C97.84853781 253.55232156 97.53611224 255.55389666 97.22338867 257.55541992 C97.04829269 258.68815842 96.87319672 259.82089691 96.6927948 260.98796082 C96.1953125 263.5234375 96.1953125 263.5234375 95.1953125 264.5234375 C93.56856472 264.61684184 91.93777199 264.64088921 90.30834961 264.63696289 C89.26734604 264.63688736 88.22634247 264.63681183 87.15379333 264.63673401 C86.0215181 264.63157272 84.88924286 264.62641144 83.72265625 264.62109375 C81.99348717 264.61897133 81.99348717 264.61897133 80.22938538 264.61680603 C76.53050186 264.61118755 72.83167786 264.59863192 69.1328125 264.5859375 C66.63216233 264.58092488 64.13151121 264.57636156 61.63085938 264.57226562 C55.48565662 264.56121212 49.34048881 264.54445602 43.1953125 264.5234375 C40.68622486 249.92899165 38.39751209 235.33566157 36.5078125 220.6484375 C36.1906992 218.19074904 35.87227672 215.73327001 35.54936218 213.27633667 C35.35225798 211.7765596 35.15840092 210.27635094 34.96833801 208.77566528 C34.50474178 205.03098972 34.50474178 205.03098972 33.1953125 201.5234375 C33.10032471 202.06645508 33.00533691 202.60947266 32.9074707 203.16894531 C29.14315238 224.28487219 23.0678402 242.17821821 4.89453125 255.16796875 C-5.63215846 261.97327552 -17.42480136 265.29105064 -29.8046875 266.5234375 C-31.08859375 266.6575 -32.3725 266.7915625 -33.6953125 266.9296875 C-56.46808917 268.9606562 -80.10250305 265.50250226 -99.0390625 252.07421875 C-99.62171875 251.56246094 -100.204375 251.05070312 -100.8046875 250.5234375 C-100.8046875 249.8634375 -100.8046875 249.2034375 -100.8046875 248.5234375 C-104.53631493 248.75666421 -106.60123953 250.0036953 -109.4296875 252.2734375 C-140.24847998 276.24999807 -213.03172237 264.5234375 -234.8046875 264.5234375 C-234.8046875 175.0934375 -234.8046875 85.6634375 -234.8046875 -6.4765625 C-123.87168502 -6.4765625 -123.87168502 -6.4765625 -104.8046875 10.5234375 C-104.32 10.14832031 -103.8353125 9.77320313 -103.3359375 9.38671875 C-74.72272521 -12.45836833 -32.49197256 -15.51736314 0 0 Z M-183.8046875 35.5234375 C-183.8046875 56.9734375 -183.8046875 78.4234375 -183.8046875 100.5234375 C-163.91447924 101.73578117 -163.91447924 101.73578117 -146.26098633 94.22460938 C-140.48334512 87.47547208 -141.37693147 76.12976167 -141.4921875 67.8359375 C-141.48896484 66.66482422 -141.48574219 65.49371094 -141.48242188 64.28710938 C-141.53470206 55.8604933 -142.03207982 47.76463536 -146.8046875 40.5234375 C-157.53973767 32.73526384 -171.00131356 35.5234375 -183.8046875 35.5234375 Z M-63.5546875 43.5859375 C-71.30538985 53.70491001 -70.95482341 65.79817469 -70.94995117 77.98120117 C-70.95330978 79.19873077 -70.9566684 80.41626038 -70.96012878 81.67068481 C-70.96796137 84.98712105 -70.97130406 88.30349464 -70.97194457 91.61993575 C-70.97265911 93.69972926 -70.97480105 95.77951634 -70.97744179 97.85930824 C-70.98667392 105.13741085 -70.99077949 112.41549524 -70.98999023 119.69360352 C-70.98939052 126.44126051 -70.99992687 133.1888373 -71.0157339 139.93647403 C-71.02888067 145.75933521 -71.03417113 151.58217041 -71.03353482 157.40504628 C-71.03328186 160.86953359 -71.03602 164.33394955 -71.04671288 167.79842186 C-71.05834324 171.67187909 -71.05360371 175.54522943 -71.04760742 179.41870117 C-71.05322693 180.5417717 -71.05884644 181.66484222 -71.06463623 182.82194519 C-71.09702673 201.24465485 -71.09702673 201.24465485 -62.5546875 216.8359375 C-54.28395566 221.91115931 -46.2866514 222.93952324 -36.80078125 220.8671875 C-30.54250165 218.89178496 -25.98839706 216.40189098 -22.8046875 210.5234375 C-18.83387687 200.14910618 -18.65493488 189.28749599 -18.65942383 178.32519531 C-18.65606522 177.13532013 -18.6527066 175.94544495 -18.64924622 174.71951294 C-18.64141573 171.47959684 -18.63807109 168.23971936 -18.63743043 164.99979496 C-18.63671583 162.96825199 -18.63457379 160.93671558 -18.63193321 158.90517426 C-18.62270268 151.79680459 -18.61859539 144.68845358 -18.61938477 137.58007812 C-18.61998472 130.98804267 -18.60944309 124.39608925 -18.5936411 117.80407453 C-18.58049985 112.11625961 -18.57520362 106.4284713 -18.57584018 100.74064136 C-18.57609326 97.3561099 -18.5733481 93.97165144 -18.56266212 90.58713531 C-18.55279211 86.80444152 -18.55576794 83.02195543 -18.56176758 79.23925781 C-18.55614807 78.14064423 -18.55052856 77.04203064 -18.54473877 75.91012573 C-18.57804643 58.78778816 -18.57804643 58.78778816 -26.1875 44 C-31.6568047 39.04612715 -37.53818163 38.15264294 -44.6796875 38.2109375 C-45.38714111 38.21585205 -46.09459473 38.2207666 -46.82348633 38.22583008 C-53.65889301 38.37947899 -58.03143592 39.44349881 -63.5546875 43.5859375 Z M-183.8046875 142.5234375 C-183.8046875 168.9234375 -183.8046875 195.3234375 -183.8046875 222.5234375 C-163.33677387 224.09332488 -163.33677387 224.09332488 -144.8046875 216.5234375 C-138.13178892 207.28403947 -139.61820049 194.80596628 -139.61938477 183.95678711 C-139.6172018 181.72555341 -139.59899239 179.49481842 -139.58007812 177.26367188 C-138.98235316 160.4018222 -138.98235316 160.4018222 -145.87890625 145.79296875 C-156.08133775 139.06722791 -174.97681098 142.5234375 -183.8046875 142.5234375 Z " fill="#020202" transform="translate(711.8046875,157.4765625)"/>
<path d="M0 0 C106.1410316 0 106.1410316 0 123.6875 16 C142.7475973 36.00466849 141.5476806 68.18716704 141.09765625 93.83105469 C140.47582906 114.00934712 137.59735262 134.96565594 123.05859375 150.15625 C115.41737288 157 115.41737288 157 111 157 C112.77520437 164.0075873 114.55374194 171.01432282 116.33447266 178.02050781 C116.93840963 180.39824792 117.54161583 182.77617378 118.14404297 185.15429688 C122.81378121 203.64728933 122.81378121 203.64728933 128 222 C128.11891602 221.33548828 128.23783203 220.67097656 128.36035156 219.98632812 C132.05286248 199.40891002 135.88952066 178.85897142 139.75 158.3125 C143.32370388 139.29202712 146.88633222 120.26976296 150.4017334 101.23840332 C152.26395871 91.15822065 154.1310871 81.07894469 156 71 C156.18577606 69.9981152 156.18577606 69.9981152 156.37530518 68.9759903 C158.00637926 60.18093339 159.6408849 51.38652483 161.28198242 42.59333229 C161.95417099 38.99148948 162.62527339 35.38945336 163.29345703 31.78686523 C164.03565041 27.78559242 164.78321389 23.78534091 165.53125 19.78515625 C165.7516394 18.59293961 165.97202881 17.40072296 166.19909668 16.17237854 C166.5114325 14.50935951 166.5114325 14.50935951 166.83007812 12.81274414 C167.00865356 11.85421036 167.187229 10.89567657 167.37121582 9.90809631 C168.09333992 6.5683074 169.06128738 3.28549415 170 0 C189.14 0 208.28 0 228 0 C233.58840012 26.82432057 233.58840012 26.82432057 235.625 38.9375 C238.29823481 54.52234407 241.29389626 70.04139728 244.3125 85.5625 C247.88526741 103.94187058 251.39021956 122.33044389 254.75 140.75 C254.93336914 141.75511627 255.11673828 142.76023254 255.30566406 143.79580688 C255.48709961 144.79042938 255.66853516 145.78505188 255.85546875 146.80981445 C256.21480333 148.77946701 256.57417777 150.7491123 256.93359375 152.71875 C257.10744598 153.67166428 257.28129822 154.62457855 257.4604187 155.60636902 C259.20670427 165.16139747 261.00157699 174.70703486 262.8125 184.25 C263.01558777 185.32042542 263.01558777 185.32042542 263.22277832 186.41247559 C264.14600811 191.27546525 265.07309719 196.13770689 266 201 C267.98 211.395 267.98 211.395 270 222 C270.33 148.74 270.66 75.48 271 0 C287.17 0 303.34 0 320 0 C320 89.43 320 178.86 320 271 C288.98 271 257.96 271 226 271 C218 229 218 229 218 222 C217.34 222.33 216.68 222.66 216 223 C213.37372867 223.08667255 210.77437517 223.11560135 208.1484375 223.09765625 C207.37440582 223.0962413 206.60037415 223.09482635 205.80288696 223.09336853 C203.32688558 223.08776403 200.85097412 223.07521083 198.375 223.0625 C196.69791797 223.05748558 195.02083453 223.05292257 193.34375 223.04882812 C189.22913194 223.03779315 185.11458122 223.02052554 181 223 C179.10534395 227.18115218 178.28444592 231.36281982 177.5625 235.86328125 C177.43689697 236.6140947 177.31129395 237.36490814 177.18188477 238.13847351 C176.78259284 240.52896714 176.39073192 242.92059353 176 245.3125 C175.60843722 247.69354007 175.21516622 250.0742602 174.81811523 252.45439148 C174.57205317 253.93089209 174.32915778 255.40792547 174.09008789 256.88557434 C173.29131794 261.69842549 172.19173023 266.23307906 171 271 C143.61 271 116.22 271 88 271 C86.63197199 267.57992998 85.55273716 264.59648844 84.66235352 261.08178711 C84.41734604 260.12153625 84.17233856 259.1612854 83.91990662 258.17193604 C83.6588765 257.13422058 83.39784637 256.09650513 83.12890625 255.02734375 C82.8504335 253.93153992 82.57196075 252.83573608 82.28504944 251.70672607 C81.37406032 248.11785407 80.46812061 244.52773013 79.5625 240.9375 C78.93623006 238.46389921 78.30976365 235.99034816 77.68310547 233.5168457 C76.09145827 227.22927212 74.50475218 220.94046413 72.92010498 214.65112305 C72.03632533 211.14414471 71.15138041 207.63746248 70.26611328 204.13085938 C68.95692641 198.94325238 67.65083536 193.75487743 66.34786987 188.56570435 C65.86667279 186.64975298 65.38484276 184.73396046 64.90237427 182.81832886 C64.23717673 180.17505989 63.57510773 177.53102875 62.9140625 174.88671875 C62.71788834 174.10915222 62.52171417 173.33158569 62.31959534 172.53045654 C61 167.22936597 61 167.22936597 61 165 C57.37 165 53.74 165 50 165 C50.00222061 166.31322739 50.00444122 167.62645477 50.00672913 168.97947693 C50.02695802 181.32601074 50.04197092 193.6725412 50.05181217 206.01908779 C50.05704164 212.36730576 50.06414044 218.7155104 50.07543945 225.0637207 C50.08626606 231.18448582 50.09227635 237.30523809 50.09487724 243.42601204 C50.0967319 245.76690943 50.10035329 248.10780609 50.10573006 250.44869804 C50.11293748 253.71508202 50.11399107 256.98141215 50.11352539 260.24780273 C50.11712067 261.226035 50.12071594 262.20426727 50.12442017 263.21214294 C50.1230455 264.09700378 50.12167084 264.98186462 50.12025452 265.89353943 C50.12117631 266.66692374 50.1220981 267.44030806 50.12304783 268.23712826 C50 270 50 270 49 271 C32.83 271 16.66 271 0 271 C0 181.57 0 92.14 0 0 Z M50 44 C50 70.07 50 96.14 50 123 C68.96866255 124.36439219 68.96866255 124.36439219 86 117.6875 C90.56060704 111.55918429 90.33293554 105.16668352 90.37109375 97.828125 C90.38012222 96.75052917 90.3891507 95.67293335 90.39845276 94.56268311 C90.41293058 92.28660854 90.42183584 90.0104926 90.42553711 87.734375 C90.43741308 84.27531714 90.48660869 80.8180558 90.53710938 77.359375 C90.54657705 75.14063364 90.55381043 72.9218814 90.55859375 70.703125 C90.57812607 69.67987122 90.59765839 68.65661743 90.61778259 67.60235596 C90.57324643 60.41443337 88.97772397 55.03225647 85 49 C75.99903768 41.21538394 60.03666369 44 50 44 Z M199 87 C195.81766083 105.53872752 192.88311646 124.10364288 190.14404297 142.71289062 C189.90610487 144.3242454 189.6679886 145.93557387 189.4296875 147.546875 C189.31446747 148.32861084 189.19924744 149.11034668 189.08053589 149.91577148 C188.47941717 153.94963708 187.8433859 157.97447427 187.15332031 161.99414062 C187.0141922 162.80554504 186.87506409 163.61694946 186.73171997 164.45294189 C186.46601601 165.98693339 186.19588238 167.52016723 185.92037964 169.0524292 C185.20275904 173.18065156 185 176.74957296 185 181 C194.24 181 203.48 181 213 181 C211.43176939 165.82960341 209.29196454 150.77337335 207.0625 135.6875 C206.53720057 132.11288956 206.01278355 128.53815033 205.4883728 124.96340942 C205.14747924 122.64049584 204.80619779 120.31763914 204.46450806 117.99484253 C202.9463691 107.66746955 201.46566667 97.33493634 200 87 C199.67 87 199.34 87 199 87 Z " fill="#020202" transform="translate(0,151)"/>
<path d="M0 0 C20.46 0 40.92 0 62 0 C67.02873214 17.86066932 72.04775196 35.72401394 77.05267334 53.59136963 C77.62647357 55.63970624 78.20039978 57.68800756 78.7744751 59.73626709 C84.21484758 79.14866102 89.60900727 98.57384884 95 118 C95.00423194 117.39793511 95.00846388 116.79587023 95.01282406 116.17556095 C95.11599546 101.54602773 95.22461267 86.91654201 95.33933926 72.28709507 C95.39468727 65.21249122 95.4481718 58.13788232 95.49731445 51.06323242 C95.54470077 44.24217287 95.59722045 37.42116854 95.65294075 30.60017204 C95.67339947 27.99134549 95.69210658 25.38250462 95.70907402 22.77365303 C95.73304042 19.13363567 95.76310524 15.49371794 95.79467773 11.85375977 C95.8004332 10.76331863 95.80618866 9.6728775 95.81211853 8.5493927 C95.82190735 7.56356201 95.83169617 6.57773132 95.84178162 5.56202698 C95.84823417 4.70015054 95.85468672 3.8382741 95.8613348 2.95028019 C96 1 96 1 97 0 C113.17 0 129.34 0 146 0 C146 89.43 146 178.86 146 271 C129.5 271 113 271 96 271 C93.46525524 264.6631381 91.13419867 258.58612533 89.23046875 252.08203125 C88.98891556 251.27122604 88.74736237 250.46042084 88.49848938 249.62504578 C87.72393391 247.02209725 86.95573524 244.41732004 86.1875 241.8125 C85.64636042 239.99072877 85.10468968 238.16911523 84.5625 236.34765625 C83.50414259 232.7916375 82.44749635 229.23511822 81.39208984 225.67822266 C79.78750053 220.27744593 78.15106823 214.88673417 76.5 209.5 C73.38397336 199.30147826 70.31525035 189.08886974 67.25 178.875 C66.90690796 177.73260864 66.90690796 177.73260864 66.55688477 176.56713867 C60.99867555 158.05640601 55.50769866 139.5258955 50 121 C49.67 170.5 49.34 220 49 271 C32.83 271 16.66 271 0 271 C0 181.57 0 92.14 0 0 Z M96 123 C97 125 97 125 97 125 Z " fill="#020202" transform="translate(327,151)"/>
<path d="M0 0 C11.99011157 11.4209607 16.98083546 26.65500921 20.125 42.5 C20.29281982 43.32999512 20.46063965 44.15999023 20.63354492 45.01513672 C21.89185419 51.95926546 21.91213528 58.77070155 21.75 65.8125 C15.97021106 66.50828278 10.19017536 67.20196744 4.40991211 67.89379883 C2.44793066 68.1289143 0.48601507 68.36458006 -1.47583008 68.60083008 C-27.61634077 71.74780426 -27.61634077 71.74780426 -31.25 71.8125 C-32.80654049 70.25595951 -32.52103408 68.63640508 -32.6796875 66.47265625 C-32.75316406 65.57353516 -32.82664062 64.67441406 -32.90234375 63.74804688 C-33.04802685 61.86822369 -33.18884784 59.98801579 -33.32421875 58.10742188 C-33.95431298 50.56231041 -34.8412538 42.93735994 -39.5625 36.8125 C-46.86245549 31.37997498 -56.54821626 31.91352815 -65.25 32.8125 C-70.60442304 34.22155869 -74.3919954 37.049159 -77.25 41.8125 C-80.8016316 49.43751782 -80.68352203 57.09193585 -80.65405273 65.35327148 C-80.65976457 66.80634076 -80.66673196 68.25940556 -80.67485046 69.71246338 C-80.69270696 73.63609584 -80.69162779 77.55950375 -80.68590808 81.48316455 C-80.68280541 84.76829368 -80.68892059 88.05338035 -80.69494683 91.33850342 C-80.70896568 99.09297416 -80.70745272 106.84733467 -80.69604492 114.60180664 C-80.68456517 122.58114127 -80.69864286 130.56013973 -80.7254414 138.53943008 C-80.74764646 145.41022325 -80.75422501 152.28091127 -80.74836498 159.15173775 C-80.7450058 163.24660522 -80.74734097 167.34125725 -80.76461601 171.43609428 C-80.78016018 175.28831722 -80.77604777 179.14004465 -80.75731087 182.99224854 C-80.75364557 184.39904249 -80.75667285 185.80587377 -80.76719666 187.21263313 C-80.82679113 195.84335309 -80.61940543 204.46285325 -74.90894222 211.45441341 C-69.04324861 216.86823102 -61.72257883 217.13791363 -54.1875 217.0625 C-53.02250977 217.07410156 -53.02250977 217.07410156 -51.83398438 217.0859375 C-46.15743626 217.06671126 -41.70768876 216.09986078 -36.625 213.4375 C-26.8184552 202.59868733 -29.00620174 183.34094281 -28.6875 169.6875 C-28.64422119 167.9505123 -28.60060422 166.213533 -28.55664062 164.4765625 C-28.4499006 160.25529676 -28.350105 156.03394895 -28.25 151.8125 C-37.16 151.8125 -46.07 151.8125 -55.25 151.8125 C-55.25 136.9625 -55.25 122.1125 -55.25 106.8125 C-29.84 106.8125 -4.43 106.8125 21.75 106.8125 C21.79030303 145.89300885 21.79030303 145.89300885 21.79882812 162.21679688 C21.80477149 173.50675915 21.81177419 184.796714 21.82543945 196.08666992 C21.8353852 204.30753683 21.84185317 212.52839774 21.84408849 220.7492705 C21.84539579 225.10492322 21.84848281 229.46055875 21.85573006 233.81620598 C21.86248855 237.91106614 21.86461731 242.00590192 21.86310768 246.10076714 C21.86338409 247.60808952 21.86539022 249.11541267 21.86920547 250.62273026 C21.87413999 252.67177499 21.87239819 254.72083264 21.87025452 256.7698822 C21.87163721 258.49409598 21.87163721 258.49409598 21.87304783 260.25314236 C21.75 262.8125 21.75 262.8125 20.75 263.8125 C17.79294679 263.90118299 14.85934944 263.92770296 11.90234375 263.91015625 C10.57270348 263.90803383 10.57270348 263.90803383 9.21620178 263.90586853 C6.37326746 263.90025215 3.53041069 263.88769691 0.6875 263.875 C-1.23502491 263.86998711 -3.15755104 263.86542384 -5.08007812 263.86132812 C-9.80341549 263.85027741 -14.52669458 263.83300183 -19.25 263.8125 C-19.45496094 263.18601562 -19.65992188 262.55953125 -19.87109375 261.9140625 C-20.14050781 261.09679687 -20.40992188 260.27953125 -20.6875 259.4375 C-20.95433594 258.62539063 -21.22117187 257.81328125 -21.49609375 256.9765625 C-22.20179729 254.80218201 -22.20179729 254.80218201 -23.25 252.8125 C-23.97703125 253.27140625 -24.7040625 253.7303125 -25.453125 254.203125 C-35.99898765 260.63880528 -45.85433118 264.43687367 -58.25 264.8125 C-59.40371094 264.85246094 -60.55742188 264.89242188 -61.74609375 264.93359375 C-82.08091241 265.29331479 -100.61340316 262.02399074 -115.875 247.875 C-134.17329004 228.77438042 -136.40523332 200.99165377 -136.39526367 175.78637695 C-136.39862228 174.54396744 -136.4019809 173.30155792 -136.40544128 172.02149963 C-136.41325138 168.64925657 -136.41661519 165.27707513 -136.41725707 161.90482736 C-136.41797331 159.78730466 -136.42011836 157.66978821 -136.42275429 155.55226707 C-136.43197554 148.13453137 -136.4360933 140.71681351 -136.43530273 133.29907227 C-136.43470305 126.43382923 -136.4452417 119.56866504 -136.4610464 112.70344192 C-136.47421261 106.76837246 -136.47948285 100.83332848 -136.47884732 94.89824456 C-136.47859496 91.3716673 -136.48129885 87.84516023 -136.49202538 84.31859779 C-136.57383355 55.43543121 -136.51158504 24.07949993 -115.5625 1.5625 C-88.33030942 -23.89933784 -28.01906583 -23.66617928 0 0 Z " fill="#020202" transform="translate(1839.25,162.1875)"/>
<path d="M0 0 C1.18851563 0.01675781 2.37703125 0.03351563 3.6015625 0.05078125 C19.17319814 0.67722636 35.02547927 5.50458212 46.75 16.125 C60.69939551 31.43531214 65.80506655 52.80974511 67 73 C62.12935506 74.52420875 57.63187194 75.37807584 52.51953125 75.81640625 C51.82542648 75.87779282 51.13132172 75.93917938 50.41618347 76.00242615 C48.21545643 76.19553357 46.01406141 76.37917781 43.8125 76.5625 C42.35606554 76.68882919 40.89968466 76.81577777 39.44335938 76.94335938 C35.29630738 77.30465224 31.14832907 77.65366833 27 78 C25.15607666 78.1544458 25.15607666 78.1544458 23.27490234 78.31201172 C20.51669071 78.54243639 17.75840233 78.77187142 15 79 C14.89977539 78.42556152 14.79955078 77.85112305 14.69628906 77.25927734 C14.22873578 74.62836244 13.73957565 72.00190218 13.25 69.375 C13.09273437 68.47136719 12.93546875 67.56773437 12.7734375 66.63671875 C11.62072084 60.56278867 10.16701658 55.7481768 5.31640625 51.5390625 C-3.33044438 47.032686 -13.00924527 48.28259271 -22.07421875 50.953125 C-24.52341138 52.28453195 -24.99297378 53.43752014 -26 56 C-26.53625 57.19625 -27.0725 58.3925 -27.625 59.625 C-30.17943064 66.64968426 -29.72232861 73.83893034 -27.09765625 80.78515625 C-21.68537078 91.70603121 -11.33010398 100.08389291 -2.0078125 107.5625 C1.31635362 110.25636969 4.5697251 113.02173464 7.8125 115.8125 C8.39467285 116.31305908 8.9768457 116.81361816 9.57666016 117.3293457 C10.77214967 118.35800369 11.96729557 119.38706114 13.16210938 120.41650391 C16.29298726 123.11401639 19.42724139 125.80758158 22.5625 128.5 C23.13395752 128.99218018 23.70541504 129.48436035 24.29418945 129.99145508 C24.837771 130.4583374 25.38135254 130.92521973 25.94140625 131.40625 C26.45590332 131.84839844 26.97040039 132.29054688 27.50048828 132.74609375 C28.93420026 133.94497762 30.41758436 135.08369841 31.90234375 136.21875 C32.59457031 136.8065625 33.28679687 137.394375 34 138 C34 138.66 34 139.32 34 140 C34.59683594 140.27328125 35.19367188 140.5465625 35.80859375 140.828125 C49.41631707 148.10498239 61.52556482 169.02853365 66.15625 182.98046875 C72.62250044 206.12126314 71.99562858 231.29400679 61 253 C52.03128277 267.7060584 37.32631231 276.51242552 20.86987305 280.51855469 C-3.12520857 285.44778771 -32.89332372 285.89906639 -54.80078125 273.40234375 C-57.32798171 271.71882174 -59.66654489 269.94182628 -62 268 C-62.69609375 267.42765625 -63.3921875 266.8553125 -64.109375 266.265625 C-73.74877704 257.52291152 -78.98831491 245.42685597 -82 233 C-82.28617188 231.86304688 -82.57234375 230.72609375 -82.8671875 229.5546875 C-85.22752178 219.1467373 -85.95778512 208.65925702 -86 198 C-84.45159133 196.45159133 -82.80086176 196.61006566 -80.65136719 196.33569336 C-79.72660583 196.21564438 -78.80184448 196.0955954 -77.84906006 195.97190857 C-76.84183899 195.84582718 -75.83461792 195.71974579 -74.796875 195.58984375 C-73.7669342 195.45808243 -72.73699341 195.32632111 -71.67584229 195.19056702 C-69.49037497 194.91200416 -67.30463498 194.63557367 -65.11865234 194.36108398 C-61.77758428 193.94096853 -58.43759053 193.51300976 -55.09765625 193.08398438 C-52.97662233 192.81463258 -50.85553035 192.54573758 -48.734375 192.27734375 C-47.73525085 192.14923813 -46.73612671 192.02113251 -45.70672607 191.8891449 C-44.76935608 191.77224808 -43.83198608 191.65535126 -42.86621094 191.53491211 C-41.6349649 191.37955238 -41.6349649 191.37955238 -40.37884521 191.22105408 C-37.90560112 190.99122799 -35.48244108 190.96220482 -33 191 C-32.95512451 191.56807373 -32.91024902 192.13614746 -32.86401367 192.72143555 C-32.04983903 212.26283354 -32.04983903 212.26283354 -25 230 C-16.59455792 235.00749741 -6.68207533 235.18028312 2.80859375 233.50390625 C7.63798222 232.0624193 10.95634668 230.15043635 14 226 C17.30193377 217.19484327 17.3610367 206.67393239 13.8984375 197.90625 C7.26720092 183.83649586 -7.36170096 172.51073055 -19.3828125 163.08203125 C-23.55228302 159.7651241 -27.59454751 156.29984496 -31.6484375 152.84375 C-33.82470035 150.989569 -36.01625903 149.15719436 -38.2265625 147.34375 C-58.9504629 130.27033282 -78.55169511 110.14356519 -81.8059082 82.14819336 C-83.71167491 61.05531125 -81.20948177 39.5591902 -68 22.40234375 C-56.85824122 9.2112972 -40.43464175 1.99049755 -23.375 0.3125 C-15.58584168 -0.18188958 -7.79943961 -0.15687467 0 0 Z " fill="#020202" transform="translate(1431,146)"/>
<path d="M0 0 C0.95036857 0.00092179 1.90073713 0.00184359 2.87990475 0.00279331 C3.96670528 0.00141865 5.05350582 0.00004398 6.17323971 -0.00137234 C7.3758897 0.00222294 8.5785397 0.00581821 9.81763363 0.00952244 C11.07599026 0.00937641 12.33434689 0.00923038 13.63083553 0.00907993 C17.09142389 0.00879198 20.55197788 0.01468834 24.01255822 0.02165389 C27.62539227 0.0278878 31.23822704 0.02849126 34.85106564 0.0296793 C41.69694645 0.0327925 48.54281137 0.04100575 55.38868517 0.05102879 C63.18057726 0.06219026 70.97247009 0.06770046 78.76436818 0.07272422 C94.79702669 0.08318837 110.8296633 0.10153372 126.86231136 0.12304783 C126.86231136 15.96304783 126.86231136 31.80304783 126.86231136 48.12304783 C101.78231136 48.12304783 76.70231136 48.12304783 50.86231136 48.12304783 C50.86231136 66.93304783 50.86231136 85.74304783 50.86231136 105.12304783 C71.98231136 105.12304783 93.10231136 105.12304783 114.86231136 105.12304783 C114.86231136 120.30304783 114.86231136 135.48304783 114.86231136 151.12304783 C93.74231136 151.12304783 72.62231136 151.12304783 50.86231136 151.12304783 C50.86231136 178.18304783 50.86231136 205.24304783 50.86231136 233.12304783 C75.94231136 233.12304783 101.02231136 233.12304783 126.86231136 233.12304783 C126.86231136 248.96304783 126.86231136 264.80304783 126.86231136 281.12304783 C110.06007003 281.14559465 93.25784154 281.16402689 76.45558929 281.17486 C68.654553 281.18002301 60.85352676 281.1870658 53.05249691 281.19848728 C46.25554823 281.20843397 39.45860683 281.21490122 32.66165107 281.21713632 C29.06053005 281.21844346 25.45942984 281.22152946 21.85831547 281.22877789 C17.84474534 281.23679147 13.83121172 281.23703898 9.81763363 281.23657322 C8.61498363 281.2401685 7.41233364 281.24376377 6.17323971 281.24746799 C5.08643917 281.24609333 3.99963863 281.24471867 2.87990475 281.24330235 C1.92953618 281.24422414 0.97916761 281.24514593 0 281.24609566 C-2.13768864 281.12304783 -2.13768864 281.12304783 -3.13768864 280.12304783 C-3.2353645 278.63315651 -3.26324345 277.13863654 -3.26352978 275.64554691 C-3.26613752 274.6723052 -3.26874527 273.69906348 -3.27143204 272.69632959 C-3.26920132 271.61434998 -3.2669706 270.53237037 -3.26467228 269.41760349 C-3.26623227 268.27814353 -3.26779226 267.13868356 -3.26939952 265.9646945 C-3.27271265 262.78783247 -3.27150044 259.61100824 -3.26841331 256.43414712 C-3.26616097 253.01352528 -3.26963798 249.59290875 -3.27239323 246.17228794 C-3.27685172 239.46573103 -3.27587411 232.75918528 -3.27298059 226.05262792 C-3.27072686 220.60452741 -3.2704139 215.15643004 -3.2715044 209.7083292 C-3.27165764 208.93442763 -3.27181087 208.16052605 -3.27196874 207.36317292 C-3.27228845 205.79125718 -3.27261267 204.21934145 -3.27294134 202.64742571 C-3.27579636 187.88993458 -3.27250876 173.13244965 -3.26714097 158.37495953 C-3.26267291 145.69837518 -3.26344884 133.02179998 -3.26805973 120.3452158 C-3.2734051 105.64236249 -3.27552167 90.93951462 -3.27244747 76.23666048 C-3.2721289 74.67036247 -3.27181453 73.10406447 -3.2715044 71.53776646 C-3.27135013 70.76701539 -3.27119585 69.99626433 -3.2710369 69.20215717 C-3.27017163 63.75739516 -3.27163483 58.31263658 -3.27398396 52.8678751 C-3.27678174 46.23713375 -3.27604415 39.60640424 -3.27070321 32.97566426 C-3.2680659 29.5892812 -3.26706162 26.20291793 -3.27035236 22.816535 C-3.27306062 19.15383393 -3.26968674 15.49118956 -3.26467228 11.82849216 C-3.266903 10.74651255 -3.26913372 9.66453294 -3.27143204 8.54976606 C-3.26882429 7.57652435 -3.26621655 6.60328263 -3.26352978 5.60054874 C-3.26336743 4.75393476 -3.26320507 3.90732078 -3.2630378 3.03505182 C-3.08330553 0.29351918 -2.74119488 0.15778635 0 0 Z " fill="#020202" transform="translate(1873.1376886367798,145.87695217132568)"/>
<path d="M0 0 C42.9 0 85.8 0 130 0 C130 15.84 130 31.68 130 48 C104.59 48 79.18 48 53 48 C53 66.81 53 85.62 53 105 C74.12 105 95.24 105 117 105 C117 120.18 117 135.36 117 151 C95.88 151 74.76 151 53 151 C53 178.06 53 205.12 53 233 C78.41 233 103.82 233 130 233 C130 248.84 130 264.68 130 281 C87.1 281 44.2 281 0 281 C0 188.27 0 95.54 0 0 Z " fill="#020202" transform="translate(1569,146)"/>
<path d="M0 0 C8.91 0 17.82 0 27 0 C28.90756154 1.90756154 28.12518894 4.73180677 28.13293558 7.27059621 C28.13059442 8.18376459 28.12825325 9.09693298 28.12584114 10.03777313 C28.12729458 11.00268875 28.12874802 11.96760438 28.13024551 12.96175987 C28.13393351 16.23815308 28.13040622 19.51450058 28.12698364 22.79089355 C28.12813436 25.14630517 28.12972154 27.50171661 28.13171089 29.85712767 C28.13503126 35.00045743 28.13520533 40.14377767 28.13266373 45.28710747 C28.12889459 52.93518563 28.13080801 60.58325488 28.13387203 68.23133297 C28.13914907 81.88763021 28.1386769 95.54392279 28.13579312 109.20022048 C28.1332818 121.15076903 28.13261888 133.10131587 28.13381577 145.05186462 C28.13389215 145.84325477 28.13396854 146.63464492 28.13404724 147.45001658 C28.13435855 150.66218094 28.13467695 153.8743453 28.135007 157.08650966 C28.13806895 187.24544249 28.13528787 217.40437234 28.1299101 247.56330471 C28.12516417 274.38286229 28.12558879 301.20241512 28.13037109 328.02197266 C28.13572076 358.12423733 28.13785183 388.22649936 28.13475883 418.32876444 C28.13443809 421.53522142 28.13412525 424.7416784 28.13381577 427.94813538 C28.13373669 428.73770038 28.13365761 429.52726538 28.13357614 430.34075659 C28.13243661 442.28649287 28.13377276 454.23222724 28.13629532 466.17796326 C28.13914798 479.75496507 28.13845388 493.33196147 28.13301457 506.90896261 C28.13006782 514.51615319 28.12990162 522.12333206 28.13366075 529.73052236 C28.13615223 535.39507781 28.13347037 541.05962101 28.12868617 546.72417456 C28.12756083 549.02764637 28.12815572 551.33111974 28.13056196 553.63459057 C28.133563 556.74382577 28.13052454 559.85299522 28.12584114 562.96222687 C28.12818231 563.87539525 28.13052347 564.78856364 28.13293558 565.72940379 C28.11415034 571.88584966 28.11415034 571.88584966 27 573 C18.09 573 9.18 573 0 573 C0 383.91 0 194.82 0 0 Z " fill="#020202" transform="translate(1286,0)"/>
<path d="M0 0 C17.49 0 34.98 0 53 0 C53 92.73 53 185.46 53 281 C35.51 281 18.02 281 0 281 C0 188.27 0 95.54 0 0 Z " fill="#020202" transform="translate(1507,146)"/>
<path d="M0 0 C17.16 0 34.32 0 52 0 C52 89.43 52 178.86 52 271 C35.5 271 19 271 2 271 C2.33 270.01 2.66 269.02 3 268 C5.625 266.859375 5.625 266.859375 9 265.75 C20.12771744 261.65606902 29.88742306 253.6522576 35.5703125 243.078125 C44.83433432 221.66547576 46.25748152 196.17771326 38.3046875 174.08984375 C33.20897787 162.02186076 25.83248448 152.52657707 17 143 C16.28714844 142.22785156 15.57429687 141.45570313 14.83984375 140.66015625 C10.49724505 136.15705083 5.73389078 132.26720034 0.859375 128.35546875 C-2.03797436 125.96871784 -4.80339749 123.48226545 -7.5625 120.9375 C-11.69635278 117.13692814 -15.94748771 113.58566034 -20.3515625 110.10546875 C-52.84265658 84.27552818 -52.84265658 84.27552818 -56 69 C-56.72744513 61.80948467 -55.86236364 54.24450185 -51.74609375 48.140625 C-47.199285 43.13541864 -42.05722989 41.2410959 -35.43359375 40.71875 C-20.07742303 40.35276381 -20.07742303 40.35276381 -14.296875 45.5234375 C-8.22989784 52.50340637 -6.75659881 61.99415592 -7 71 C-6.36312256 70.91435791 -5.72624512 70.82871582 -5.07006836 70.74047852 C10.29021242 68.70626803 25.50999607 67.39921554 41 67 C40.87157715 66.35788574 40.7431543 65.71577148 40.61083984 65.05419922 C40.43762207 64.18811035 40.2644043 63.32202148 40.0859375 62.4296875 C39.90256836 61.51413086 39.71919922 60.59857422 39.53027344 59.65527344 C39.1128701 57.56518197 38.70010568 55.47416407 38.2890625 53.3828125 C35.0868641 37.67320388 30.61559666 21.22004166 17.3515625 10.94921875 C11.8432281 7.3464286 6.11298423 4.4300999 0 2 C0 1.34 0 0.68 0 0 Z " fill="#020202" transform="translate(1007,151)"/>
<path d="M0 0 C2.64 0 5.28 0 8 0 C11.36345619 7.25545549 14.18523485 14.67489277 16.94216919 22.17684937 C17.77446168 24.44156154 18.61029804 26.70493895 19.44702148 28.96801758 C20.66019142 32.24962747 21.87216501 35.53167577 23.08349609 38.81396484 C26.05592183 46.86289297 29.04912619 54.90410091 32.04202271 62.94543457 C33.06089836 65.68319633 34.07918207 68.42117775 35.09741211 71.15917969 C38.24498171 79.62001801 41.40007414 88.07790267 44.578125 96.52734375 C44.85631577 97.26730087 45.13450653 98.007258 45.42112732 98.76963806 C46.7061325 102.18678724 47.99301802 105.603206 49.28344727 109.01831055 C50.15668912 111.33729631 51.02109665 113.65963913 51.87426758 115.98608398 C52.57053828 117.85020497 53.30098077 119.70242394 54.0847168 121.53149414 C56.53642652 127.58915944 55.64135361 131.25318671 53.1875 137.1875 C52.85999756 138.04553223 52.53249512 138.90356445 52.19506836 139.78759766 C51.50011743 141.60799717 50.79454786 143.42437392 50.07910156 145.23681641 C48.66899235 148.84758927 47.35681214 152.49013291 46.04614258 156.13793945 C45.05162272 158.90526687 44.04516023 161.66797678 43.03515625 164.4296875 C41.01717446 169.95085474 39.0078355 175.47513628 37 181 C36.33337255 182.83334759 35.66670586 184.66668092 35 186.5 C34.67 187.4075 34.34 188.315 34 189.25 C30.33333333 199.33333333 26.66666667 209.41666667 23 219.5 C22.6697583 220.4082251 22.3395166 221.3164502 21.99926758 222.25219727 C21.33519926 224.07826346 20.67097499 225.90427295 20.0065918 227.73022461 C18.29886144 232.42428296 16.59417814 237.11941441 14.89453125 241.81640625 C11.35758391 251.58253041 7.7948603 261.33040405 4 271 C2.68 271 1.36 271 0 271 C0 181.57 0 92.14 0 0 Z " fill="#020202" transform="translate(1107,151)"/>
<path d="M0 0 C4.6 2.2 4.6 2.2 6 5 C6.19319801 7.30120301 6.3171869 9.59955632 6.42578125 11.90625 C6.79796519 14.15433685 6.79796519 14.15433685 8.83984375 15.2421875 C11.52915457 16.18563469 14.1810239 16.61559417 17 17 C17 18.32 17 19.64 17 21 C17.62648438 21.13277344 18.25296875 21.26554687 18.8984375 21.40234375 C19.71570313 21.57894531 20.53296875 21.75554688 21.375 21.9375 C22.18710938 22.11152344 22.99921875 22.28554688 23.8359375 22.46484375 C26 23 26 23 28 24 C28.495 22.515 28.495 22.515 29 21 C30.32 21 31.64 21 33 21 C34.125 26.75 34.125 26.75 33 29 C35.31 29.33 37.62 29.66 40 30 C39.67 31.32 39.34 32.64 39 34 C37.74703125 33.84402344 36.4940625 33.68804687 35.203125 33.52734375 C33.55212855 33.33034986 31.90108431 33.13375619 30.25 32.9375 C29.425 32.83373047 28.6 32.72996094 27.75 32.62304688 C26.95078125 32.52958984 26.1515625 32.43613281 25.328125 32.33984375 C24.5949707 32.25081787 23.86181641 32.16179199 23.10644531 32.07006836 C20.97201306 31.90181504 20.97201306 31.90181504 18.85449219 32.54125977 C17 33 17 33 15 32 C15 34.64 15 37.28 15 40 C13.00045254 40.04254356 10.99958364 40.04080783 9 40 C8.67 39.67 8.34 39.34 8 39 C6.35395322 42.29209357 6.3627416 45.45562947 7 49 C9.69229447 54.44048434 13.71143154 59.04864215 17.80078125 63.4921875 C20.80826089 67.27357884 20.41446212 72.33226114 20.6875 76.9375 C20.74744141 77.74896484 20.80738281 78.56042969 20.86914062 79.39648438 C20.91619141 80.18216797 20.96324219 80.96785156 21.01171875 81.77734375 C21.08072388 82.84843384 21.08072388 82.84843384 21.15112305 83.94116211 C20.97364999 86.3589816 20.09048498 87.85962293 19 90 C19.78677531 93.49677914 20.68491306 94.76176353 23.5625 96.9375 C26 99 26 99 26.8125 102.25 C26.874375 103.1575 26.93625 104.065 27 105 C24 107 24 107 21.1875 106.9375 C17.1731372 105.75680506 15.04096866 103.84264462 12 101 C11.21625 100.401875 10.4325 99.80375 9.625 99.1875 C7.56366226 96.41262227 7.74744588 94.32176188 7.921875 90.9453125 C8.02002714 88.50132433 7.5486921 86.37766575 7 84 C6.938125 82.906875 6.87625 81.81375 6.8125 80.6875 C5.09108176 72.87490954 -0.89172401 67.77096113 -7 63 C-11.18313239 64.89100505 -14.43712913 67.65812836 -17.9765625 70.5390625 C-20 72 -20 72 -22 72 C-22.20625 72.61875 -22.4125 73.2375 -22.625 73.875 C-24 76 -24 76 -27 76.9375 C-30.21942628 77.69500878 -30.21942628 77.69500878 -31.375 80.625 C-31.684375 81.800625 -31.684375 81.800625 -32 83 C-32.66 83 -33.32 83 -34 83 C-33.7834375 84.051875 -33.7834375 84.051875 -33.5625 85.125 C-34.15783443 89.03719768 -35.81951289 90.41673574 -38.84375 92.83984375 C-42.48066165 94.79666034 -45.99229685 94.49073916 -50 94 C-49.875 90.8125 -49.875 90.8125 -49 87 C-47.04072937 85.2856382 -45.04119788 83.61594832 -43 82 C-42.23870425 79.61098043 -42.23870425 79.61098043 -42 77 C-40.75 73.3125 -40.75 73.3125 -39 70 C-37.35636866 69.27840576 -35.68949614 68.60648579 -34 68 C-32.83486387 65.80067065 -32.83486387 65.80067065 -32 63 C-31.06316819 61.02035994 -30.06794581 59.07654961 -29.06640625 57.12890625 C-28.34897746 55.69667662 -27.6695385 54.24484901 -27.02734375 52.77734375 C-26.54974609 51.71193359 -26.54974609 51.71193359 -26.0625 50.625 C-25.78535156 49.97789063 -25.50820313 49.33078125 -25.22265625 48.6640625 C-24 47 -24 47 -19 45 C-19 41.04 -19 37.08 -19 33 C-20.98 33.495 -20.98 33.495 -23 34 C-24.41534778 34.06456879 -25.83337689 34.08611039 -27.25 34.0625 C-29.10625 34.0315625 -29.10625 34.0315625 -31 34 C-32.27569029 31.89886305 -33.03543649 30.54926564 -32.875 28.0625 C-30.29856278 21.9894694 -25.53550505 19.08128699 -20 16 C-19.34 15.62230469 -18.68 15.24460937 -18 14.85546875 C-16 14 -16 14 -12 14 C-12.391875 13.278125 -12.78375 12.55625 -13.1875 11.8125 C-14 9 -14 9 -12.875 6.4375 C-12.25625 5.633125 -11.6375 4.82875 -11 4 C-10.13375 2.8553125 -10.13375 2.8553125 -9.25 1.6875 C-6.03334532 -0.72499101 -3.93024057 -0.48266112 0 0 Z " fill="#040607" transform="translate(55,17)"/>
<path d="M0 0 C4.62 0 9.24 0 14 0 C14 10.56 14 21.12 14 32 C22.51162825 31.96040724 22.51162825 31.96040724 31.02319336 31.90991211 C32.6030603 31.90616577 32.6030603 31.90616577 34.21484375 31.90234375 C35.84087524 31.89448853 35.84087524 31.89448853 37.49975586 31.88647461 C40 32 40 32 41 33 C41.42297363 32.30962646 41.84594727 31.61925293 42.28173828 30.90795898 C44.22318334 27.74721435 46.17399663 24.59235283 48.125 21.4375 C48.79015625 20.35146484 49.4553125 19.26542969 50.140625 18.14648438 C60.03732345 2.18563246 60.03732345 2.18563246 66 0 C69.29980469 -0.22705078 69.29980469 -0.22705078 73.171875 -0.1953125 C74.1955014 -0.19106766 74.1955014 -0.19106766 75.23980713 -0.18673706 C77.41005307 -0.17558098 79.57987971 -0.15048557 81.75 -0.125 C83.22525444 -0.11496426 84.70051537 -0.10583944 86.17578125 -0.09765625 C89.78398942 -0.07565687 93.39195375 -0.04115883 97 0 C97.02527062 6.39037231 97.04283317 12.78073183 97.05493164 19.17114258 C97.05997308 21.34692873 97.06680607 23.52271147 97.07543945 25.69848633 C97.08751338 28.81853067 97.09323005 31.93853038 97.09765625 35.05859375 C97.10281754 36.03775253 97.10797882 37.01691132 97.11329651 38.02574158 C97.11337204 38.92659988 97.11344757 39.82745819 97.11352539 40.75561523 C97.115746 41.55281479 97.11796661 42.35001434 97.12025452 43.17137146 C97 45 97 45 96 46 C93.81360547 46.07258946 91.62499611 46.08373783 89.4375 46.0625 C87.64119141 46.04896484 87.64119141 46.04896484 85.80859375 46.03515625 C84.88175781 46.02355469 83.95492187 46.01195312 83 46 C83 42.04 83 38.08 83 34 C78.80493116 33.87050398 74.63306969 33.81921291 70.4375 33.8125 C68.66536133 33.74579102 68.66536133 33.74579102 66.85742188 33.67773438 C63.27055716 33.7078761 60.40124352 33.83492529 57 35 C55.39625409 37.52109449 55.39625409 37.52109449 54.25 40.53125 C52.67944336 43.54418945 52.67944336 43.54418945 50 46 C41.83303691 48.04523263 32.89255249 47.02175704 24.5625 46.6875 C22.18565921 46.63229992 19.80869632 46.58211387 17.43164062 46.53710938 C11.61564923 46.42545858 5.81659105 46.21039186 0 46 C0 30.82 0 15.64 0 0 Z M67.75 15.875 C65.83713221 18.69389581 65.83713221 18.69389581 66 21 C71.61 21 77.22 21 83 21 C83 18.36 83 15.72 83 13 C74.56230149 11.88158057 74.56230149 11.88158057 67.75 15.875 Z M38 36 C39 38 39 38 39 38 Z M34 43 C35 45 35 45 35 45 Z " fill="#040607" transform="translate(367,58)"/>
<path d="M0 0 C0.66 0 1.32 0 2 0 C2.86337155 2.30232413 3.72673848 4.60464999 4.59008789 6.90698242 C5.37826559 9.00873431 6.16651692 11.11045858 6.95483398 13.2121582 C9.04723925 18.79097116 11.1389063 24.37005639 13.22805786 29.9500885 C14.24896538 32.67669555 15.27034643 35.40312513 16.29174805 38.12954712 C16.80564286 39.50167637 17.31931469 40.87388916 17.83276367 42.2461853 C20.3755166 49.0419374 22.92630951 55.83380262 25.54296875 62.6015625 C25.91993896 63.57843018 26.29690918 64.55529785 26.68530273 65.56176758 C27.37435392 67.34198764 28.06760329 69.12059084 28.76586914 70.8972168 C31 76.67007608 31 76.67007608 31 80 C11.86 80 -7.28 80 -27 80 C-24.74994093 69.87473418 -24.74994093 69.87473418 -23.43115234 66.02880859 C-23.13679291 65.16274994 -22.84243347 64.29669128 -22.53915405 63.40438843 C-22.22459259 62.49492462 -21.91003113 61.58546082 -21.5859375 60.6484375 C-21.08593735 59.18454086 -21.08593735 59.18454086 -20.57583618 57.69107056 C-19.5133765 54.58415606 -18.44425854 51.47958029 -17.375 48.375 C-16.68056169 46.3465006 -15.98654814 44.31785574 -15.29296875 42.2890625 C-13.56078647 37.22762812 -11.81938282 32.16943177 -10.0736084 27.1126709 C-8.95539772 23.87068635 -7.84152113 20.62722876 -6.72753906 17.38378906 C-5.99827633 15.26880108 -5.26879193 13.15388951 -4.5390625 11.0390625 C-4.19829681 10.04474213 -3.85753113 9.05042175 -3.50643921 8.02597046 C-3.19187775 7.11715118 -2.87731628 6.20833191 -2.55322266 5.27197266 C-2.27660797 4.46877594 -1.99999329 3.66557922 -1.71499634 2.83804321 C-1 1 -1 1 0 0 Z " fill="#020202" transform="translate(1185,342)"/>
<path d="M0 0 C1.1471196 0.00565979 2.2942392 0.01131958 3.47612 0.01715088 C7.13424688 0.03951303 10.79138869 0.08971173 14.44921875 0.140625 C16.93162646 0.16069009 19.41404955 0.17894084 21.89648438 0.1953125 C27.97694114 0.23937773 34.05666302 0.30840653 40.13671875 0.390625 C39.47671875 4.680625 38.81671875 8.970625 38.13671875 13.390625 C23.61671875 13.390625 9.09671875 13.390625 -5.86328125 13.390625 C-5.86328125 14.380625 -5.86328125 15.370625 -5.86328125 16.390625 C-4.22129761 16.36705933 -4.22129761 16.36705933 -2.54614258 16.34301758 C1.52588506 16.2886039 5.59788072 16.25423344 9.67016602 16.22583008 C11.43063771 16.21076947 13.19107205 16.19031674 14.95141602 16.16430664 C17.48593378 16.12780271 20.01995427 16.11087146 22.5546875 16.09765625 C23.33821091 16.08217239 24.12173431 16.06668854 24.92900085 16.05073547 C29.53641793 16.04932539 32.46809408 16.54723566 36.13671875 19.390625 C39.84454259 23.62813796 40.49444394 27.49778707 40.4140625 32.97265625 C39.96332906 36.90229004 38.70257604 40.3582482 36.13671875 43.390625 C30.63233637 47.01805756 25.62120203 46.78222816 19.26953125 46.68359375 C18.23480682 46.67934891 17.2000824 46.67510406 16.13400269 46.67073059 C12.84297194 46.65399496 9.55256309 46.61635149 6.26171875 46.578125 C4.02474845 46.56307158 1.78776852 46.54938433 -0.44921875 46.53710938 C-5.92078358 46.50410822 -11.39198797 46.45395968 -16.86328125 46.390625 C-17.86328125 43.390625 -17.86328125 43.390625 -15.86328125 32.390625 C-2.00328125 32.390625 11.85671875 32.390625 26.13671875 32.390625 C26.13671875 31.400625 26.13671875 30.410625 26.13671875 29.390625 C25.01177002 29.41157227 23.88682129 29.43251953 22.7277832 29.45410156 C18.54399401 29.52664023 14.36026014 29.5724749 10.17602539 29.61035156 C8.36701095 29.63043553 6.55806118 29.65770841 4.74926758 29.69238281 C2.14518254 29.74104392 -0.4580424 29.76362551 -3.0625 29.78125 C-4.27059578 29.81221771 -4.27059578 29.81221771 -5.50309753 29.84381104 C-9.44900003 29.84537881 -11.38388325 29.69367117 -14.80004883 27.53417969 C-18.49897547 23.69125271 -20.03364857 20.18438347 -20.23828125 14.890625 C-20.03552461 9.64539899 -18.45089388 6.20870755 -14.99145508 2.24707031 C-10.15623856 -0.62243616 -5.51679965 -0.10245774 0 0 Z " fill="#040607" transform="translate(690.86328125,57.609375)"/>
<path d="M0 0 C14 0 14 0 17.30175781 2.66210938 C18.43170166 4.42150879 18.43170166 4.42150879 19.453125 6.34375 C19.85029724 6.9874353 20.24746948 7.63112061 20.65667725 8.29431152 C21.90436667 10.3374935 23.07695309 12.41324179 24.25 14.5 C25.47993463 16.57518451 26.72368944 18.64143306 27.97186279 20.70568848 C28.740428 21.98835634 29.49550789 23.27921871 30.23565674 24.57849121 C31.10444366 26.08397073 32.04556987 27.54730512 33 29 C33.66 29 34.32 29 35 29 C36.37276112 26.91058246 37.62380093 24.82520211 38.859375 22.65625 C39.65224829 21.33301408 40.44791607 20.01144934 41.24609375 18.69140625 C42.50291077 16.60421851 43.74212014 14.51401764 44.93603516 12.39013672 C46.09370566 10.34320625 47.31211919 8.34488222 48.546875 6.34375 C48.8839447 5.7094104 49.2210144 5.0750708 49.56829834 4.42150879 C50.69824219 2.66210938 50.69824219 2.66210938 54 0 C58.62 0 63.24 0 68 0 C68 15.18 68 30.36 68 46 C63.71 46 59.42 46 55 46 C54.67 39.73 54.34 33.46 54 27 C52.1746875 29.7534375 52.1746875 29.7534375 50.3125 32.5625 C49.56871094 33.65175781 48.82492187 34.74101563 48.05859375 35.86328125 C46.03500183 38.80367714 46.03500183 38.80367714 44.84765625 41.35546875 C43.875 43.25 43.875 43.25 41 46 C36.08085125 47.1934388 31.90811891 47.26953653 27 46 C23.69305425 43.16220572 21.98790636 39.83268347 20 36 C18.87354962 34.27882414 17.72889058 32.56936414 16.5625 30.875 C15.716875 29.59625 14.87125 28.3175 14 27 C13.67 33.27 13.34 39.54 13 46 C8.71 46 4.42 46 0 46 C0 30.82 0 15.64 0 0 Z " fill="#040607" transform="translate(218,58)"/>
<path d="M0 0 C7.29554638 -0.12693664 14.59080725 -0.21440916 21.88720703 -0.2746582 C24.36843508 -0.29977841 26.84958931 -0.33388069 29.33056641 -0.37719727 C32.90025054 -0.43795481 36.46895505 -0.4662358 40.0390625 -0.48828125 C41.14553131 -0.51408768 42.25200012 -0.5398941 43.39199829 -0.56648254 C52.0008298 -0.56960679 52.0008298 -0.56960679 55.68505859 2.40551758 C60.38970789 7.67827734 59.25929527 13.82708939 59.29516602 20.5480957 C59.31235651 22.79375573 59.35624 25.03793433 59.40039062 27.28320312 C59.41052001 28.71613503 59.41903535 30.14907943 59.42578125 31.58203125 C59.44036377 32.88374268 59.45494629 34.1854541 59.4699707 35.52661133 C58.91648768 39.61721028 57.97897882 41.18328532 55 44 C50.65015217 46.55853521 46.09786207 46.30631256 41.19140625 46.30078125 C39.92489479 46.30720894 39.92489479 46.30720894 38.63279724 46.31376648 C36.85180557 46.3194946 35.0707905 46.32002125 33.28979492 46.31567383 C30.57494948 46.31251449 27.86119521 46.33598918 25.14648438 46.36132812 C23.4114597 46.36360145 21.67643211 46.36430446 19.94140625 46.36328125 C18.73176964 46.37709587 18.73176964 46.37709587 17.49769592 46.39118958 C12.59326518 46.35121579 9.25836622 45.69027744 5 43 C0.24295371 37.85724726 -0.14420151 33.81528336 -0.09765625 27.05078125 C-0.0962413 26.27816452 -0.09482635 25.50554779 -0.09336853 24.70951843 C-0.08777466 22.24380611 -0.07522333 19.77818485 -0.0625 17.3125 C-0.05748421 15.63997527 -0.05292144 13.96744912 -0.04882812 12.29492188 C-0.03780724 8.19657954 -0.02054684 4.09830521 0 0 Z M14 13 C13.979375 15.949375 13.95875 18.89875 13.9375 21.9375 C13.928396 22.86812256 13.91929199 23.79874512 13.90991211 24.75756836 C13.90741455 25.48596924 13.90491699 26.21437012 13.90234375 26.96484375 C13.89710693 27.7137085 13.89187012 28.46257324 13.88647461 29.23413086 C13.80658248 31.02667739 13.80658248 31.02667739 15 32 C17.29151417 32.08790975 19.58572524 32.10694038 21.87890625 32.09765625 C22.5655687 32.0962413 23.25223114 32.09482635 23.95970154 32.09336853 C26.16067801 32.08775479 28.36155409 32.07520007 30.5625 32.0625 C32.05143083 32.05748676 33.54036324 32.05292355 35.02929688 32.04882812 C38.68626805 32.03863021 42.34302117 32.01905779 46 32 C46 25.73 46 19.46 46 13 C35.44 13 24.88 13 14 13 Z " fill="#040607" transform="translate(155,58)"/>
<path d="M0 0 C16.07296274 0 16.07296274 0 20.9375 4.6875 C21.7732959 5.41332275 21.7732959 5.41332275 22.62597656 6.15380859 C23.81358262 7.19090551 24.98810006 8.2431582 26.14990234 9.30908203 C28.7904394 11.72243115 31.5080976 14.04290741 34.22094727 16.37426758 C36.164599 18.05131325 38.0903819 19.74720919 40.015625 21.4453125 C42.69749252 23.94954117 42.69749252 23.94954117 45 25 C45 16.75 45 8.5 45 0 C49.62 0 54.24 0 59 0 C59 15.18 59 30.36 59 46 C46.01024631 46 44.29966498 45.77109553 36 38 C33.06983973 35.52798707 30.09532399 33.11098872 27.125 30.6875 C25.03455566 28.95884579 22.94492505 27.22921712 20.85595703 25.4987793 C18.93819172 23.95008668 16.98044535 22.46739222 15 21 C14.97494385 21.72179443 14.9498877 22.44358887 14.92407227 23.18725586 C14.80848698 26.437535 14.68559226 29.68749688 14.5625 32.9375 C14.52318359 34.07380859 14.48386719 35.21011719 14.44335938 36.38085938 C14.40146484 37.46044922 14.35957031 38.54003906 14.31640625 39.65234375 C14.26141968 41.15269165 14.26141968 41.15269165 14.20532227 42.68334961 C14 45 14 45 13 46 C8.71 46 4.42 46 0 46 C0 30.82 0 15.64 0 0 Z " fill="#040607" transform="translate(468,58)"/>
<path d="M0 0 C19.47 0 38.94 0 59 0 C58 11 58 11 57 13 C42.81 13 28.62 13 14 13 C14 19.27 14 25.54 14 32 C28.52 32 43.04 32 58 32 C58.495 38.93 58.495 38.93 59 46 C52.13153437 46.07426809 45.26330356 46.1286587 38.39453125 46.16479492 C36.05887784 46.17986261 33.72325263 46.20032049 31.38769531 46.22631836 C28.02662181 46.26278958 24.66592308 46.2797469 21.3046875 46.29296875 C20.26384003 46.30845261 19.22299255 46.32393646 18.15060425 46.33988953 C11.74669296 46.34136937 7.28427095 45.71801734 2.1875 41.5 C-0.79605519 37.73129871 -0.12730442 33.15411986 -0.09765625 28.61328125 C-0.09664917 27.88894897 -0.09564209 27.1646167 -0.09460449 26.41833496 C-0.08937826 23.71637384 -0.07541698 21.0144353 -0.0625 18.3125 C-0.041875 12.269375 -0.02125 6.22625 0 0 Z " fill="#040607" transform="translate(531,58)"/>
<path d="M0 0 C19.47 0 38.94 0 59 0 C58.34 4.29 57.68 8.58 57 13 C42.48 13 27.96 13 13 13 C13.33 18.94 13.66 24.88 14 31 C28.19 31.33 42.38 31.66 57 32 C59 42 59 42 59 46 C52.13158286 46.07619033 45.2632751 46.12865885 38.39453125 46.16479492 C36.05887784 46.17986261 33.72325263 46.20032049 31.38769531 46.22631836 C28.02662181 46.26278958 24.66592308 46.2797469 21.3046875 46.29296875 C20.26384003 46.30845261 19.22299255 46.32393646 18.15060425 46.33988953 C11.74669296 46.34136937 7.28427095 45.71801734 2.1875 41.5 C-0.79605519 37.73129871 -0.12730442 33.15411986 -0.09765625 28.61328125 C-0.09664917 27.88894897 -0.09564209 27.1646167 -0.09460449 26.41833496 C-0.08937826 23.71637384 -0.07541698 21.0144353 -0.0625 18.3125 C-0.041875 12.269375 -0.02125 6.22625 0 0 Z " fill="#040607" transform="translate(305,58)"/>
<path d="M0 0 C16.17 0 32.34 0 49 0 C46.75011423 10.12448598 46.75011423 10.12448598 45.58300781 13.49975586 C45.3222345 14.26182846 45.06146118 15.02390106 44.79278564 15.80906677 C44.51569763 16.60297318 44.23860962 17.39687958 43.953125 18.21484375 C43.51259796 19.49676353 43.51259796 19.49676353 43.06317139 20.80458069 C42.13001999 23.51715581 41.19028643 26.22739093 40.25 28.9375 C39.32884606 31.60597996 38.40909643 34.27494047 37.48962402 36.94400024 C36.88478104 38.69970139 36.27939872 40.45521683 35.67346191 42.21054077 C32.71764959 50.78559056 29.84867977 59.38885928 27 68 C26.01 68 25.02 68 24 68 C20.5645825 58.77138025 17.13406826 49.54095694 13.71086121 40.30780029 C12.24452115 36.35307144 10.77683117 32.39886161 9.3046875 28.44628906 C8.00329525 24.95202236 6.70648231 21.45609164 5.41323853 17.95880127 C4.93056322 16.65603868 4.44617524 15.35390932 3.96005249 14.0524292 C3.2852594 12.24496539 2.61706985 10.43504034 1.94921875 8.625 C1.57112061 7.60664063 1.19302246 6.58828125 0.8034668 5.5390625 C0 3 0 3 0 0 Z " fill="#020202" transform="translate(1165,151)"/>
<path d="M0 0 C19.47 0 38.94 0 59 0 C59 4.29 59 8.58 59 13 C51.41 13 43.82 13 36 13 C36 23.89 36 34.78 36 46 C31.38 46 26.76 46 22 46 C22 35.11 22 24.22 22 13 C14.74 13 7.48 13 0 13 C0 8.71 0 4.42 0 0 Z " fill="#040607" transform="translate(94,58)"/>
<path d="M0 0 C14.08987125 -1.78394618 14.08987125 -1.78394618 18.86865234 1.14550781 C22.97222633 4.7141452 26.56502918 9.13005837 29 14 C32.60230794 12.79923069 33.03291944 11.42080815 34.90673828 8.2878418 C39.68689205 0.63495092 39.68689205 0.63495092 44.22705078 -0.61132812 C49.53158678 -1.15210763 54.72740586 -0.67199729 60 0 C58.28246219 4.200725 55.33159766 7.26136421 52.375 10.625 C51.84028076 11.25180664 51.30556152 11.87861328 50.75463867 12.52441406 C48.39847532 15.28571438 46.04743682 17.95307483 43.46484375 20.5078125 C36.30795669 27.96344439 36.82898614 36.18807965 37 46 C32.38 46 27.76 46 23 46 C23.06703125 44.86304688 23.1340625 43.72609375 23.203125 42.5546875 C23.41378104 33.59107789 22.74340541 27.30951394 16.5 20.5625 C14.88718643 18.87651989 13.25123538 17.22344219 11.58349609 15.59179688 C9.14152035 13.13702015 6.99663035 10.49957824 4.8125 7.8125 C4.09707031 6.95269531 3.38164063 6.09289062 2.64453125 5.20703125 C1 3 1 3 0 0 Z " fill="#040607" transform="translate(593,58)"/>
<path d="M0 0 C-2.1402485 6.18665583 -5.87972703 10.94388015 -11 15 C-14.5014298 15.8556865 -17.49076283 15.8007188 -21 15 C-22 14 -22 14 -22.375 10.875 C-21.99072698 6.90417881 -21.63556026 4.48478105 -19.2421875 1.3125 C-13.79737586 -1.87470682 -6.07590147 -0.42203064 0 0 Z " fill="#040607" transform="translate(673,58)"/>
<path d="M0 0 C3.63 0 7.26 0 11 0 C11.04254356 1.99954746 11.04080783 4.00041636 11 6 C10 7 10 7 8.15234375 7.09765625 C6.1015625 7.06510417 4.05078125 7.03255208 2 7 C2 5.68 2 4.36 2 3 C1.34 3 0.68 3 0 3 C0 2.01 0 1.02 0 0 Z " fill="#030404" transform="translate(0,93)"/>
</svg>
